<svg xmlns="http://www.w3.org/2000/svg" width="1800" height="2500" viewBox="0 0 1800 2500">
  <defs>
    <linearGradient id="bg" x1="0" y1="0" x2="0" y2="1"><stop offset="0%" stop-color="#d9e8f2"/><stop offset="58%" stop-color="#eef6fa"/><stop offset="100%" stop-color="#d7dde2"/></linearGradient>
    <filter id="softShadow" x="-10%" y="-10%" width="120%" height="120%"><feDropShadow dx="0" dy="8" stdDeviation="10" flood-color="#6d7f8a" flood-opacity="0.16"/></filter>
  </defs>
  <rect width="100%" height="100%" fill="url(#bg)"/>
  <circle cx="1450" cy="310" r="500" fill="#ffffff" opacity="0.18"/>
  <circle cx="260" cy="2140" r="620" fill="#ffffff" opacity="0.20"/>
  <text x="900" y="70" text-anchor="middle" font-family="Arial, sans-serif" font-size="48" font-weight="800" fill="#202124">Postleitzahl 84028 — Landshut</text>
  <text x="900" y="112" text-anchor="middle" font-family="Arial, sans-serif" font-size="22" fill="#4b5055">Google-Maps-Orte: gelöschte Rezensionen wegen „Diffamierung“</text>
  <text x="900" y="160" text-anchor="middle" font-family="Arial, sans-serif" font-size="18" fill="#6f7377">658 Orte erfasst · 63 mit sichtbarem Banner (9,6%) · 0 in der „Über“-Stufe</text><g><text x="80" y="230" font-family="Arial, sans-serif" font-size="27" font-weight="800" fill="#202124">1. Höchste Lösch-Quote</text><text x="80" y="260" font-family="Arial, sans-serif" font-size="16" fill="#6f7377">Anteil gelöschter Rezensionen</text><rect x="80" y="322" width="470" height="1104" fill="#ffffff" opacity="0.96" filter="url(#softShadow)"/><line x1="114.0" y1="322" x2="114.0" y2="1406.0" stroke="#dde3e8" stroke-width="1"/><line x1="214.5" y1="322" x2="214.5" y2="1406.0" stroke="#dde3e8" stroke-width="1"/><line x1="315.0" y1="322" x2="315.0" y2="1406.0" stroke="#dde3e8" stroke-width="1"/><line x1="415.5" y1="322" x2="415.5" y2="1406.0" stroke="#dde3e8" stroke-width="1"/><line x1="516.0" y1="322" x2="516.0" y2="1406.0" stroke="#dde3e8" stroke-width="1"/><text x="72" y="361.0" text-anchor="end" font-family="Arial, sans-serif" font-size="13" fill="#83888d">1.</text><text x="114" y="342.0" font-family="Arial, sans-serif" font-size="14" fill="#202124">easyApotheke Landshut-Park</text><rect x="114" y="346.0" width="402.0" height="18" fill="#c9332c"/><text x="524.0" y="361.0" font-family="Arial, sans-serif" font-size="13" fill="#202124">27,0%  (11–20 von 42)</text><text x="72" y="397.0" text-anchor="end" font-family="Arial, sans-serif" font-size="13" fill="#83888d">2.</text><text x="114" y="378.0" font-family="Arial, sans-serif" font-size="14" fill="#202124">Hofberg Apotheke</text><rect x="114" y="382.0" width="336.7" height="18" fill="#c9332c"/><text x="458.7" y="397.0" font-family="Arial, sans-serif" font-size="13" fill="#202124">22,6%  (2–5 von 12)</text><text x="72" y="433.0" text-anchor="end" font-family="Arial, sans-serif" font-size="13" fill="#83888d">3.</text><text x="114" y="414.0" font-family="Arial, sans-serif" font-size="14" fill="#202124">Barbara-Apotheke / CannabisFürMich</text><rect x="114" y="418.0" width="336.5" height="18" fill="#c9332c"/><text x="458.5" y="433.0" font-family="Arial, sans-serif" font-size="13" fill="#202124">22,6%  (51–100 von 259)</text><text x="72" y="469.0" text-anchor="end" font-family="Arial, sans-serif" font-size="13" fill="#83888d">4.</text><text x="114" y="450.0" font-family="Arial, sans-serif" font-size="14" fill="#202124">Habibi orientalische Küche</text><rect x="114" y="454.0" width="321.8" height="18" fill="#c9332c"/><text x="443.8" y="469.0" font-family="Arial, sans-serif" font-size="13" fill="#202124">21,6%  (21–50 von 129)</text><text x="72" y="505.0" text-anchor="end" font-family="Arial, sans-serif" font-size="13" fill="#83888d">5.</text><text x="114" y="486.0" font-family="Arial, sans-serif" font-size="14" fill="#202124">Primo Pizzeria Restaurant &amp; Heimservice - La…</text><rect x="114" y="490.0" width="310.4" height="18" fill="#c9332c"/><text x="432.4" y="505.0" font-family="Arial, sans-serif" font-size="13" fill="#202124">20,8%  (21–50 von 135)</text><text x="72" y="541.0" text-anchor="end" font-family="Arial, sans-serif" font-size="13" fill="#83888d">6.</text><text x="114" y="522.0" font-family="Arial, sans-serif" font-size="14" fill="#202124">Call a Pizza Landshut</text><rect x="114" y="526.0" width="256.3" height="18" fill="#c9332c"/><text x="378.3" y="541.0" font-family="Arial, sans-serif" font-size="13" fill="#202124">17,2%  (21–50 von 171)</text><text x="72" y="577.0" text-anchor="end" font-family="Arial, sans-serif" font-size="13" fill="#83888d">7.</text><text x="114" y="558.0" font-family="Arial, sans-serif" font-size="14" fill="#202124">Gasthaus zum Freischütz</text><rect x="114" y="562.0" width="218.4" height="18" fill="#c9332c"/><text x="340.4" y="577.0" font-family="Arial, sans-serif" font-size="13" fill="#202124">14,7%  (51–100 von 440)</text><text x="72" y="613.0" text-anchor="end" font-family="Arial, sans-serif" font-size="13" fill="#83888d">8.</text><text x="114" y="594.0" font-family="Arial, sans-serif" font-size="14" fill="#202124">Altstadt-Apotheke</text><rect x="114" y="598.0" width="213.1" height="18" fill="#c9332c"/><text x="335.1" y="613.0" font-family="Arial, sans-serif" font-size="13" fill="#202124">14,3%  (6–10 von 48)</text><text x="72" y="649.0" text-anchor="end" font-family="Arial, sans-serif" font-size="13" fill="#83888d">9.</text><text x="114" y="630.0" font-family="Arial, sans-serif" font-size="14" fill="#202124">Le Viny babershop</text><rect x="114" y="634.0" width="204.0" height="18" fill="#c9332c"/><text x="326.0" y="649.0" font-family="Arial, sans-serif" font-size="13" fill="#202124">13,7%  (21–50 von 224)</text><text x="72" y="685.0" text-anchor="end" font-family="Arial, sans-serif" font-size="13" fill="#83888d">10.</text><text x="114" y="666.0" font-family="Arial, sans-serif" font-size="14" fill="#202124">Himmel-Landshut GmbH</text><rect x="114" y="670.0" width="200.9" height="18" fill="#c9332c"/><text x="322.9" y="685.0" font-family="Arial, sans-serif" font-size="13" fill="#202124">13,5%  (51–100 von 485)</text><text x="72" y="721.0" text-anchor="end" font-family="Arial, sans-serif" font-size="13" fill="#83888d">11.</text><text x="114" y="702.0" font-family="Arial, sans-serif" font-size="14" fill="#202124">Café Aran Kronprinz</text><rect x="114" y="706.0" width="189.4" height="18" fill="#c9332c"/><text x="311.4" y="721.0" font-family="Arial, sans-serif" font-size="13" fill="#202124">12,7%  (51–100 von 519)</text><text x="72" y="757.0" text-anchor="end" font-family="Arial, sans-serif" font-size="13" fill="#83888d">12.</text><text x="114" y="738.0" font-family="Arial, sans-serif" font-size="14" fill="#202124">Tanda Palace</text><rect x="114" y="742.0" width="165.7" height="18" fill="#c9332c"/><text x="287.7" y="757.0" font-family="Arial, sans-serif" font-size="13" fill="#202124">11,1%  (21–50 von 284)</text><text x="72" y="793.0" text-anchor="end" font-family="Arial, sans-serif" font-size="13" fill="#83888d">13.</text><text x="114" y="774.0" font-family="Arial, sans-serif" font-size="14" fill="#202124">Nikolaidis Griechisches Restaurant</text><rect x="114" y="778.0" width="154.6" height="18" fill="#c9332c"/><text x="276.6" y="793.0" font-family="Arial, sans-serif" font-size="13" fill="#202124">10,4%  (11–20 von 134)</text><text x="72" y="829.0" text-anchor="end" font-family="Arial, sans-serif" font-size="13" fill="#83888d">14.</text><text x="114" y="810.0" font-family="Arial, sans-serif" font-size="14" fill="#202124">Grillpoint 36</text><rect x="114" y="814.0" width="152.1" height="18" fill="#c9332c"/><text x="274.1" y="829.0" font-family="Arial, sans-serif" font-size="13" fill="#202124">10,2%  (101–150 von 1.105)</text><text x="72" y="865.0" text-anchor="end" font-family="Arial, sans-serif" font-size="13" fill="#83888d">15.</text><text x="114" y="846.0" font-family="Arial, sans-serif" font-size="14" fill="#202124">burgerme Landshut</text><rect x="114" y="850.0" width="145.2" height="18" fill="#c9332c"/><text x="267.2" y="865.0" font-family="Arial, sans-serif" font-size="13" fill="#202124">9,7%  (21–50 von 329)</text><text x="72" y="901.0" text-anchor="end" font-family="Arial, sans-serif" font-size="13" fill="#83888d">16.</text><text x="114" y="882.0" font-family="Arial, sans-serif" font-size="14" fill="#202124">La Osteria Landshut</text><rect x="114" y="886.0" width="136.7" height="18" fill="#c9332c"/><text x="258.7" y="901.0" font-family="Arial, sans-serif" font-size="13" fill="#202124">9,2%  (151–200 von 1.738)</text><text x="72" y="937.0" text-anchor="end" font-family="Arial, sans-serif" font-size="13" fill="#83888d">17.</text><text x="114" y="918.0" font-family="Arial, sans-serif" font-size="14" fill="#202124">CHARMANT Landshut</text><rect x="114" y="922.0" width="123.9" height="18" fill="#c9332c"/><text x="245.9" y="937.0" font-family="Arial, sans-serif" font-size="13" fill="#202124">8,3%  (11–20 von 171)</text><text x="72" y="973.0" text-anchor="end" font-family="Arial, sans-serif" font-size="13" fill="#83888d">18.</text><text x="114" y="954.0" font-family="Arial, sans-serif" font-size="14" fill="#202124">Noon Mirch Indisches Restaurant — Altstadt L…</text><rect x="114" y="958.0" width="102.9" height="18" fill="#c9332c"/><text x="224.9" y="973.0" font-family="Arial, sans-serif" font-size="13" fill="#202124">6,9%  (6–10 von 108)</text><text x="72" y="1009.0" text-anchor="end" font-family="Arial, sans-serif" font-size="13" fill="#83888d">19.</text><text x="114" y="990.0" font-family="Arial, sans-serif" font-size="14" fill="#202124">TMPHYSIO Mühleninsel</text><rect x="114" y="994.0" width="99.5" height="18" fill="#c9332c"/><text x="221.5" y="1009.0" font-family="Arial, sans-serif" font-size="13" fill="#202124">6,7%  (2–5 von 49)</text><text x="72" y="1045.0" text-anchor="end" font-family="Arial, sans-serif" font-size="13" fill="#83888d">20.</text><text x="114" y="1026.0" font-family="Arial, sans-serif" font-size="14" fill="#202124">Pension Geiger</text><rect x="114" y="1030.0" width="94.1" height="18" fill="#c9332c"/><text x="216.1" y="1045.0" font-family="Arial, sans-serif" font-size="13" fill="#202124">6,3%  (2–5 von 52)</text><text x="72" y="1081.0" text-anchor="end" font-family="Arial, sans-serif" font-size="13" fill="#83888d">21.</text><text x="114" y="1062.0" font-family="Arial, sans-serif" font-size="14" fill="#202124">Gym10 Landshut - Fitness ab 19,90 EUR/Monat</text><rect x="114" y="1066.0" width="85.1" height="18" fill="#c9332c"/><text x="207.1" y="1081.0" font-family="Arial, sans-serif" font-size="13" fill="#202124">5,7%  (6–10 von 132)</text><text x="72" y="1117.0" text-anchor="end" font-family="Arial, sans-serif" font-size="13" fill="#83888d">22.</text><text x="114" y="1098.0" font-family="Arial, sans-serif" font-size="14" fill="#202124">SOYO - Restaurant &amp; Bar</text><rect x="114" y="1102.0" width="85.1" height="18" fill="#c9332c"/><text x="207.1" y="1117.0" font-family="Arial, sans-serif" font-size="13" fill="#202124">5,7%  (11–20 von 256)</text><text x="72" y="1153.0" text-anchor="end" font-family="Arial, sans-serif" font-size="13" fill="#83888d">23.</text><text x="114" y="1134.0" font-family="Arial, sans-serif" font-size="14" fill="#202124">Balkan &amp; International Imbiss</text><rect x="114" y="1138.0" width="78.4" height="18" fill="#c9332c"/><text x="200.4" y="1153.0" font-family="Arial, sans-serif" font-size="13" fill="#202124">5,3%  (1 von 18)</text><text x="72" y="1189.0" text-anchor="end" font-family="Arial, sans-serif" font-size="13" fill="#83888d">24.</text><text x="114" y="1170.0" font-family="Arial, sans-serif" font-size="14" fill="#202124">SERO‘S BARBERSHOP</text><rect x="114" y="1174.0" width="76.2" height="18" fill="#c9332c"/><text x="198.2" y="1189.0" font-family="Arial, sans-serif" font-size="13" fill="#202124">5,1%  (2–5 von 65)</text><text x="72" y="1225.0" text-anchor="end" font-family="Arial, sans-serif" font-size="13" fill="#83888d">25.</text><text x="114" y="1206.0" font-family="Arial, sans-serif" font-size="14" fill="#202124">Surahi Landshut - indische Spezialitäten Res…</text><rect x="114" y="1210.0" width="75.0" height="18" fill="#c9332c"/><text x="197.0" y="1225.0" font-family="Arial, sans-serif" font-size="13" fill="#202124">5,0%  (6–10 von 151)</text><text x="72" y="1261.0" text-anchor="end" font-family="Arial, sans-serif" font-size="13" fill="#83888d">26.</text><text x="114" y="1242.0" font-family="Arial, sans-serif" font-size="14" fill="#202124">Salon Diamond Friseur, Kosmetik &amp; Beauty</text><rect x="114" y="1246.0" width="73.1" height="18" fill="#c9332c"/><text x="195.1" y="1261.0" font-family="Arial, sans-serif" font-size="13" fill="#202124">4,9%  (2–5 von 68)</text><text x="72" y="1297.0" text-anchor="end" font-family="Arial, sans-serif" font-size="13" fill="#83888d">27.</text><text x="114" y="1278.0" font-family="Arial, sans-serif" font-size="14" fill="#202124">Little Avlija Brzovic - Balkan-Spezialitäten</text><rect x="114" y="1282.0" width="70.8" height="18" fill="#c9332c"/><text x="192.8" y="1297.0" font-family="Arial, sans-serif" font-size="13" fill="#202124">4,8%  (11–20 von 311)</text><text x="72" y="1333.0" text-anchor="end" font-family="Arial, sans-serif" font-size="13" fill="#83888d">28.</text><text x="114" y="1314.0" font-family="Arial, sans-serif" font-size="14" fill="#202124">Friseur Hair &amp; Beauty - Nagelstudio - Haarve…</text><rect x="114" y="1318.0" width="69.2" height="18" fill="#c9332c"/><text x="191.2" y="1333.0" font-family="Arial, sans-serif" font-size="13" fill="#202124">4,6%  (2–5 von 72)</text><text x="72" y="1369.0" text-anchor="end" font-family="Arial, sans-serif" font-size="13" fill="#83888d">29.</text><text x="114" y="1350.0" font-family="Arial, sans-serif" font-size="14" fill="#202124">New Mountains Fitness &amp; Wellness Loft - Land…</text><rect x="114" y="1354.0" width="64.9" height="18" fill="#c9332c"/><text x="186.9" y="1369.0" font-family="Arial, sans-serif" font-size="13" fill="#202124">4,3%  (6–10 von 176)</text><text x="72" y="1405.0" text-anchor="end" font-family="Arial, sans-serif" font-size="13" fill="#83888d">30.</text><text x="114" y="1386.0" font-family="Arial, sans-serif" font-size="14" fill="#202124">La Barista</text><rect x="114" y="1390.0" width="61.0" height="18" fill="#c9332c"/><text x="183.0" y="1405.0" font-family="Arial, sans-serif" font-size="13" fill="#202124">4,1%  (2–5 von 82)</text><text x="315" y="1444.0" text-anchor="middle" font-family="Arial, sans-serif" font-size="13" fill="#6f7377">Lösch-Quote (%) · Top 30</text></g><g><text x="665" y="230" font-family="Arial, sans-serif" font-size="27" font-weight="800" fill="#202124">2. Schlechtestes „echtes“ Rating</text><text x="665" y="260" font-family="Arial, sans-serif" font-size="16" fill="#6f7377">Modell: gelöschte Rezensionen waren 1★</text><rect x="665" y="322" width="470" height="1104" fill="#ffffff" opacity="0.96" filter="url(#softShadow)"/><line x1="699.0" y1="322" x2="699.0" y2="1406.0" stroke="#dde3e8" stroke-width="1"/><line x1="799.5" y1="322" x2="799.5" y2="1406.0" stroke="#dde3e8" stroke-width="1"/><line x1="900.0" y1="322" x2="900.0" y2="1406.0" stroke="#dde3e8" stroke-width="1"/><line x1="1000.5" y1="322" x2="1000.5" y2="1406.0" stroke="#dde3e8" stroke-width="1"/><line x1="1101.0" y1="322" x2="1101.0" y2="1406.0" stroke="#dde3e8" stroke-width="1"/><text x="657" y="361.0" text-anchor="end" font-family="Arial, sans-serif" font-size="13" fill="#83888d">1.</text><text x="699" y="342.0" font-family="Arial, sans-serif" font-size="14" fill="#202124">easyApotheke Landshut-Park</text><rect x="699" y="346.0" width="402.0" height="18" fill="#ef7d16"/><text x="1109.0" y="361.0" font-family="Arial, sans-serif" font-size="13" fill="#202124">3,19★  (vorher 4,0★)</text><text x="657" y="397.0" text-anchor="end" font-family="Arial, sans-serif" font-size="13" fill="#83888d">2.</text><text x="699" y="378.0" font-family="Arial, sans-serif" font-size="14" fill="#202124">Hofberg Apotheke</text><rect x="699" y="382.0" width="286.7" height="18" fill="#ef7d16"/><text x="993.7" y="397.0" font-family="Arial, sans-serif" font-size="13" fill="#202124">3,71★  (vorher 4,5★)</text><text x="657" y="433.0" text-anchor="end" font-family="Arial, sans-serif" font-size="13" fill="#83888d">3.</text><text x="699" y="414.0" font-family="Arial, sans-serif" font-size="14" fill="#202124">Barbara-Apotheke / CannabisFürMich</text><rect x="699" y="418.0" width="269.6" height="18" fill="#ef7d16"/><text x="976.6" y="433.0" font-family="Arial, sans-serif" font-size="13" fill="#202124">3,79★  (vorher 4,6★)</text><text x="657" y="469.0" text-anchor="end" font-family="Arial, sans-serif" font-size="13" fill="#83888d">4.</text><text x="699" y="450.0" font-family="Arial, sans-serif" font-size="14" fill="#202124">Sonnen Apotheke</text><rect x="699" y="454.0" width="269.1" height="18" fill="#ef7d16"/><text x="976.1" y="469.0" font-family="Arial, sans-serif" font-size="13" fill="#202124">3,79★  (vorher 3,9★)</text><text x="657" y="505.0" text-anchor="end" font-family="Arial, sans-serif" font-size="13" fill="#83888d">5.</text><text x="699" y="486.0" font-family="Arial, sans-serif" font-size="14" fill="#202124">Call a Pizza Landshut</text><rect x="699" y="490.0" width="263.3" height="18" fill="#ef7d16"/><text x="970.3" y="505.0" font-family="Arial, sans-serif" font-size="13" fill="#202124">3,81★  (vorher 4,4★)</text><text x="657" y="541.0" text-anchor="end" font-family="Arial, sans-serif" font-size="13" fill="#83888d">6.</text><text x="699" y="522.0" font-family="Arial, sans-serif" font-size="14" fill="#202124">Primo Pizzeria Restaurant &amp; Heimservice - La…</text><rect x="699" y="526.0" width="237.8" height="18" fill="#ef7d16"/><text x="944.8" y="541.0" font-family="Arial, sans-serif" font-size="13" fill="#202124">3,93★  (vorher 4,7★)</text><text x="657" y="577.0" text-anchor="end" font-family="Arial, sans-serif" font-size="13" fill="#83888d">7.</text><text x="699" y="558.0" font-family="Arial, sans-serif" font-size="14" fill="#202124">Habibi orientalische Küche</text><rect x="699" y="562.0" width="226.7" height="18" fill="#ef7d16"/><text x="933.7" y="577.0" font-family="Arial, sans-serif" font-size="13" fill="#202124">3,98★  (vorher 4,8★)</text><text x="657" y="613.0" text-anchor="end" font-family="Arial, sans-serif" font-size="13" fill="#83888d">8.</text><text x="699" y="594.0" font-family="Arial, sans-serif" font-size="14" fill="#202124">EDEKA</text><rect x="699" y="598.0" width="226.4" height="18" fill="#ef7d16"/><text x="933.4" y="613.0" font-family="Arial, sans-serif" font-size="13" fill="#202124">3,98★  (vorher 4,1★)</text><text x="657" y="649.0" text-anchor="end" font-family="Arial, sans-serif" font-size="13" fill="#83888d">9.</text><text x="699" y="630.0" font-family="Arial, sans-serif" font-size="14" fill="#202124">Altstadt-Apotheke</text><rect x="699" y="634.0" width="203.1" height="18" fill="#ef7d16"/><text x="910.1" y="649.0" font-family="Arial, sans-serif" font-size="13" fill="#202124">4,09★  (vorher 4,6★)</text><text x="657" y="685.0" text-anchor="end" font-family="Arial, sans-serif" font-size="13" fill="#83888d">10.</text><text x="699" y="666.0" font-family="Arial, sans-serif" font-size="14" fill="#202124">Gasthaus zum Freischütz</text><rect x="699" y="670.0" width="187.1" height="18" fill="#ef7d16"/><text x="894.1" y="685.0" font-family="Arial, sans-serif" font-size="13" fill="#202124">4,16★  (vorher 4,7★)</text><text x="657" y="721.0" text-anchor="end" font-family="Arial, sans-serif" font-size="13" fill="#83888d">11.</text><text x="699" y="702.0" font-family="Arial, sans-serif" font-size="14" fill="#202124">EDEKA Leeb</text><rect x="699" y="706.0" width="184.0" height="18" fill="#ef7d16"/><text x="891.0" y="721.0" font-family="Arial, sans-serif" font-size="13" fill="#202124">4,17★  (vorher 4,2★)</text><text x="657" y="757.0" text-anchor="end" font-family="Arial, sans-serif" font-size="13" fill="#83888d">12.</text><text x="699" y="738.0" font-family="Arial, sans-serif" font-size="14" fill="#202124">La Osteria Landshut</text><rect x="699" y="742.0" width="182.4" height="18" fill="#ef7d16"/><text x="889.4" y="757.0" font-family="Arial, sans-serif" font-size="13" fill="#202124">4,18★  (vorher 4,5★)</text><text x="657" y="793.0" text-anchor="end" font-family="Arial, sans-serif" font-size="13" fill="#83888d">13.</text><text x="699" y="774.0" font-family="Arial, sans-serif" font-size="14" fill="#202124">Himmel-Landshut GmbH</text><rect x="699" y="778.0" width="177.3" height="18" fill="#ef7d16"/><text x="884.3" y="793.0" font-family="Arial, sans-serif" font-size="13" fill="#202124">4,20★  (vorher 4,7★)</text><text x="657" y="829.0" text-anchor="end" font-family="Arial, sans-serif" font-size="13" fill="#83888d">14.</text><text x="699" y="810.0" font-family="Arial, sans-serif" font-size="14" fill="#202124">Café Aran Kronprinz</text><rect x="699" y="814.0" width="171.1" height="18" fill="#ef7d16"/><text x="878.1" y="829.0" font-family="Arial, sans-serif" font-size="13" fill="#202124">4,23★  (vorher 4,7★)</text><text x="657" y="865.0" text-anchor="end" font-family="Arial, sans-serif" font-size="13" fill="#83888d">15.</text><text x="699" y="846.0" font-family="Arial, sans-serif" font-size="14" fill="#202124">L&#39;Osteria Landshut Altstadt</text><rect x="699" y="850.0" width="156.0" height="18" fill="#ef7d16"/><text x="863.0" y="865.0" font-family="Arial, sans-serif" font-size="13" fill="#202124">4,30★  (vorher 4,3★)</text><text x="657" y="901.0" text-anchor="end" font-family="Arial, sans-serif" font-size="13" fill="#83888d">16.</text><text x="699" y="882.0" font-family="Arial, sans-serif" font-size="14" fill="#202124">Balkan &amp; International Imbiss</text><rect x="699" y="886.0" width="152.0" height="18" fill="#ef7d16"/><text x="859.0" y="901.0" font-family="Arial, sans-serif" font-size="13" fill="#202124">4,32★  (vorher 4,5★)</text><text x="657" y="937.0" text-anchor="end" font-family="Arial, sans-serif" font-size="13" fill="#83888d">17.</text><text x="699" y="918.0" font-family="Arial, sans-serif" font-size="14" fill="#202124">Cafe Kreuzer Konditorei</text><rect x="699" y="922.0" width="148.7" height="18" fill="#ef7d16"/><text x="855.7" y="937.0" font-family="Arial, sans-serif" font-size="13" fill="#202124">4,33★  (vorher 4,4★)</text><text x="657" y="973.0" text-anchor="end" font-family="Arial, sans-serif" font-size="13" fill="#83888d">18.</text><text x="699" y="954.0" font-family="Arial, sans-serif" font-size="14" fill="#202124">Le Viny babershop</text><rect x="699" y="958.0" width="140.9" height="18" fill="#ef7d16"/><text x="847.9" y="973.0" font-family="Arial, sans-serif" font-size="13" fill="#202124">4,37★  (vorher 4,9★)</text><text x="657" y="1009.0" text-anchor="end" font-family="Arial, sans-serif" font-size="13" fill="#83888d">19.</text><text x="699" y="990.0" font-family="Arial, sans-serif" font-size="14" fill="#202124">Gasthof Hotel Drei Tannen Altdorf</text><rect x="699" y="994.0" width="134.4" height="18" fill="#ef7d16"/><text x="841.4" y="1009.0" font-family="Arial, sans-serif" font-size="13" fill="#202124">4,39★  (vorher 4,4★)</text><text x="657" y="1045.0" text-anchor="end" font-family="Arial, sans-serif" font-size="13" fill="#83888d">20.</text><text x="699" y="1026.0" font-family="Arial, sans-serif" font-size="14" fill="#202124">Restaurant Dynasty</text><rect x="699" y="1030.0" width="132.2" height="18" fill="#ef7d16"/><text x="839.2" y="1045.0" font-family="Arial, sans-serif" font-size="13" fill="#202124">4,41★  (vorher 4,5★)</text><text x="657" y="1081.0" text-anchor="end" font-family="Arial, sans-serif" font-size="13" fill="#83888d">21.</text><text x="699" y="1062.0" font-family="Arial, sans-serif" font-size="14" fill="#202124">Nikolaidis Griechisches Restaurant</text><rect x="699" y="1066.0" width="132.0" height="18" fill="#ef7d16"/><text x="839.0" y="1081.0" font-family="Arial, sans-serif" font-size="13" fill="#202124">4,41★  (vorher 4,8★)</text><text x="657" y="1117.0" text-anchor="end" font-family="Arial, sans-serif" font-size="13" fill="#83888d">22.</text><text x="699" y="1098.0" font-family="Arial, sans-serif" font-size="14" fill="#202124">Grillpoint 36</text><rect x="699" y="1102.0" width="130.7" height="18" fill="#ef7d16"/><text x="837.7" y="1117.0" font-family="Arial, sans-serif" font-size="13" fill="#202124">4,41★  (vorher 4,8★)</text><text x="657" y="1153.0" text-anchor="end" font-family="Arial, sans-serif" font-size="13" fill="#83888d">23.</text><text x="699" y="1134.0" font-family="Arial, sans-serif" font-size="14" fill="#202124">burgerme Landshut</text><rect x="699" y="1138.0" width="126.7" height="18" fill="#ef7d16"/><text x="833.7" y="1153.0" font-family="Arial, sans-serif" font-size="13" fill="#202124">4,43★  (vorher 4,8★)</text><text x="657" y="1189.0" text-anchor="end" font-family="Arial, sans-serif" font-size="13" fill="#83888d">24.</text><text x="699" y="1170.0" font-family="Arial, sans-serif" font-size="14" fill="#202124">TMPHYSIO Mühleninsel</text><rect x="699" y="1174.0" width="121.6" height="18" fill="#ef7d16"/><text x="828.6" y="1189.0" font-family="Arial, sans-serif" font-size="13" fill="#202124">4,45★  (vorher 4,7★)</text><text x="657" y="1225.0" text-anchor="end" font-family="Arial, sans-serif" font-size="13" fill="#83888d">25.</text><text x="699" y="1206.0" font-family="Arial, sans-serif" font-size="14" fill="#202124">Pension Geiger</text><rect x="699" y="1210.0" width="118.4" height="18" fill="#ef7d16"/><text x="825.4" y="1225.0" font-family="Arial, sans-serif" font-size="13" fill="#202124">4,47★  (vorher 4,7★)</text><text x="657" y="1261.0" text-anchor="end" font-family="Arial, sans-serif" font-size="13" fill="#83888d">26.</text><text x="699" y="1242.0" font-family="Arial, sans-serif" font-size="14" fill="#202124">Tanda Palace</text><rect x="699" y="1246.0" width="118.4" height="18" fill="#ef7d16"/><text x="825.4" y="1261.0" font-family="Arial, sans-serif" font-size="13" fill="#202124">4,47★  (vorher 4,9★)</text><text x="657" y="1297.0" text-anchor="end" font-family="Arial, sans-serif" font-size="13" fill="#83888d">27.</text><text x="699" y="1278.0" font-family="Arial, sans-serif" font-size="14" fill="#202124">SOYO - Restaurant &amp; Bar</text><rect x="699" y="1282.0" width="113.6" height="18" fill="#ef7d16"/><text x="820.6" y="1297.0" font-family="Arial, sans-serif" font-size="13" fill="#202124">4,49★  (vorher 4,7★)</text><text x="657" y="1333.0" text-anchor="end" font-family="Arial, sans-serif" font-size="13" fill="#83888d">28.</text><text x="699" y="1314.0" font-family="Arial, sans-serif" font-size="14" fill="#202124">B&amp;B HOTEL Landshut</text><rect x="699" y="1318.0" width="111.8" height="18" fill="#ef7d16"/><text x="818.8" y="1333.0" font-family="Arial, sans-serif" font-size="13" fill="#202124">4,50★  (vorher 4,5★)</text><text x="657" y="1369.0" text-anchor="end" font-family="Arial, sans-serif" font-size="13" fill="#83888d">29.</text><text x="699" y="1350.0" font-family="Arial, sans-serif" font-size="14" fill="#202124">SERO‘S BARBERSHOP</text><rect x="699" y="1354.0" width="108.7" height="18" fill="#ef7d16"/><text x="815.7" y="1369.0" font-family="Arial, sans-serif" font-size="13" fill="#202124">4,51★  (vorher 4,7★)</text><text x="657" y="1405.0" text-anchor="end" font-family="Arial, sans-serif" font-size="13" fill="#83888d">30.</text><text x="699" y="1386.0" font-family="Arial, sans-serif" font-size="14" fill="#202124">Asian Foodhall</text><rect x="699" y="1390.0" width="108.4" height="18" fill="#ef7d16"/><text x="815.4" y="1405.0" font-family="Arial, sans-serif" font-size="13" fill="#202124">4,51★  (vorher 4,6★)</text><text x="900" y="1444.0" text-anchor="middle" font-family="Arial, sans-serif" font-size="13" fill="#6f7377">Punkte unter 5★</text></g><g><text x="1250" y="230" font-family="Arial, sans-serif" font-size="27" font-weight="800" fill="#202124">3. Beste Orte ohne Löschbanner</text><text x="1250" y="260" font-family="Arial, sans-serif" font-size="16" fill="#6f7377">kein sichtbarer Diffamierungs-Löschbanner — ab 100 Rezensionen</text><rect x="1250" y="322" width="470" height="1104" fill="#ffffff" opacity="0.96" filter="url(#softShadow)"/><line x1="1284.0" y1="322" x2="1284.0" y2="1406.0" stroke="#dde3e8" stroke-width="1"/><line x1="1384.5" y1="322" x2="1384.5" y2="1406.0" stroke="#dde3e8" stroke-width="1"/><line x1="1485.0" y1="322" x2="1485.0" y2="1406.0" stroke="#dde3e8" stroke-width="1"/><line x1="1585.5" y1="322" x2="1585.5" y2="1406.0" stroke="#dde3e8" stroke-width="1"/><line x1="1686.0" y1="322" x2="1686.0" y2="1406.0" stroke="#dde3e8" stroke-width="1"/><text x="1242" y="361.0" text-anchor="end" font-family="Arial, sans-serif" font-size="13" fill="#83888d">1.</text><text x="1284" y="342.0" font-family="Arial, sans-serif" font-size="14" fill="#202124">PrimeFit+ Vilsbiburg</text><rect x="1284" y="346.0" width="402.0" height="18" fill="#2e7d32"/><text x="1694.0" y="361.0" font-family="Arial, sans-serif" font-size="13" fill="#202124">5,0★  (149 Rezensionen)</text><text x="1242" y="397.0" text-anchor="end" font-family="Arial, sans-serif" font-size="13" fill="#83888d">2.</text><text x="1284" y="378.0" font-family="Arial, sans-serif" font-size="14" fill="#202124">AtelHAIR Landshut GmbH</text><rect x="1284" y="382.0" width="402.0" height="18" fill="#2e7d32"/><text x="1694.0" y="397.0" font-family="Arial, sans-serif" font-size="13" fill="#202124">5,0★  (144 Rezensionen)</text><text x="1242" y="433.0" text-anchor="end" font-family="Arial, sans-serif" font-size="13" fill="#83888d">3.</text><text x="1284" y="414.0" font-family="Arial, sans-serif" font-size="14" fill="#202124">G&#39;schmeidig Haare lasern Landshut (Geschmeid…</text><rect x="1284" y="418.0" width="402.0" height="18" fill="#2e7d32"/><text x="1694.0" y="433.0" font-family="Arial, sans-serif" font-size="13" fill="#202124">5,0★  (127 Rezensionen)</text><text x="1242" y="469.0" text-anchor="end" font-family="Arial, sans-serif" font-size="13" fill="#83888d">4.</text><text x="1284" y="450.0" font-family="Arial, sans-serif" font-size="14" fill="#202124">Hair Amis</text><rect x="1284" y="454.0" width="402.0" height="18" fill="#2e7d32"/><text x="1694.0" y="469.0" font-family="Arial, sans-serif" font-size="13" fill="#202124">5,0★  (125 Rezensionen)</text><text x="1242" y="505.0" text-anchor="end" font-family="Arial, sans-serif" font-size="13" fill="#83888d">5.</text><text x="1284" y="486.0" font-family="Arial, sans-serif" font-size="14" fill="#202124">Secret Corner Salon</text><rect x="1284" y="490.0" width="402.0" height="18" fill="#2e7d32"/><text x="1694.0" y="505.0" font-family="Arial, sans-serif" font-size="13" fill="#202124">5,0★  (112 Rezensionen)</text><text x="1242" y="541.0" text-anchor="end" font-family="Arial, sans-serif" font-size="13" fill="#83888d">6.</text><text x="1284" y="522.0" font-family="Arial, sans-serif" font-size="14" fill="#202124">RESTAURANT DHABA LANDSHUT</text><rect x="1284" y="526.0" width="394.0" height="18" fill="#2e7d32"/><text x="1686.0" y="541.0" font-family="Arial, sans-serif" font-size="13" fill="#202124">4,9★  (1.545 Rezensionen)</text><text x="1242" y="577.0" text-anchor="end" font-family="Arial, sans-serif" font-size="13" fill="#83888d">7.</text><text x="1284" y="558.0" font-family="Arial, sans-serif" font-size="14" fill="#202124">KP Latino</text><rect x="1284" y="562.0" width="394.0" height="18" fill="#2e7d32"/><text x="1686.0" y="577.0" font-family="Arial, sans-serif" font-size="13" fill="#202124">4,9★  (312 Rezensionen)</text><text x="1242" y="613.0" text-anchor="end" font-family="Arial, sans-serif" font-size="13" fill="#83888d">8.</text><text x="1284" y="594.0" font-family="Arial, sans-serif" font-size="14" fill="#202124">Wasmayr Hof</text><rect x="1284" y="598.0" width="394.0" height="18" fill="#2e7d32"/><text x="1686.0" y="613.0" font-family="Arial, sans-serif" font-size="13" fill="#202124">4,9★  (289 Rezensionen)</text><text x="1242" y="649.0" text-anchor="end" font-family="Arial, sans-serif" font-size="13" fill="#83888d">9.</text><text x="1284" y="630.0" font-family="Arial, sans-serif" font-size="14" fill="#202124">LA-STYLE</text><rect x="1284" y="634.0" width="394.0" height="18" fill="#2e7d32"/><text x="1686.0" y="649.0" font-family="Arial, sans-serif" font-size="13" fill="#202124">4,9★  (284 Rezensionen)</text><text x="1242" y="685.0" text-anchor="end" font-family="Arial, sans-serif" font-size="13" fill="#83888d">10.</text><text x="1284" y="666.0" font-family="Arial, sans-serif" font-size="14" fill="#202124">Barbieria Landshut</text><rect x="1284" y="670.0" width="394.0" height="18" fill="#2e7d32"/><text x="1686.0" y="685.0" font-family="Arial, sans-serif" font-size="13" fill="#202124">4,9★  (272 Rezensionen)</text><text x="1242" y="721.0" text-anchor="end" font-family="Arial, sans-serif" font-size="13" fill="#83888d">11.</text><text x="1284" y="702.0" font-family="Arial, sans-serif" font-size="14" fill="#202124">Le Petit Café de Monsieur S.</text><rect x="1284" y="706.0" width="394.0" height="18" fill="#2e7d32"/><text x="1686.0" y="721.0" font-family="Arial, sans-serif" font-size="13" fill="#202124">4,9★  (260 Rezensionen)</text><text x="1242" y="757.0" text-anchor="end" font-family="Arial, sans-serif" font-size="13" fill="#83888d">12.</text><text x="1284" y="738.0" font-family="Arial, sans-serif" font-size="14" fill="#202124">Nepomuk Landshut</text><rect x="1284" y="742.0" width="394.0" height="18" fill="#2e7d32"/><text x="1686.0" y="757.0" font-family="Arial, sans-serif" font-size="13" fill="#202124">4,9★  (241 Rezensionen)</text><text x="1242" y="793.0" text-anchor="end" font-family="Arial, sans-serif" font-size="13" fill="#83888d">13.</text><text x="1284" y="774.0" font-family="Arial, sans-serif" font-size="14" fill="#202124">Fire Bar</text><rect x="1284" y="778.0" width="394.0" height="18" fill="#2e7d32"/><text x="1686.0" y="793.0" font-family="Arial, sans-serif" font-size="13" fill="#202124">4,9★  (217 Rezensionen)</text><text x="1242" y="829.0" text-anchor="end" font-family="Arial, sans-serif" font-size="13" fill="#83888d">14.</text><text x="1284" y="810.0" font-family="Arial, sans-serif" font-size="14" fill="#202124">ProBier Feinkost &amp; Bierspezialitäten</text><rect x="1284" y="814.0" width="394.0" height="18" fill="#2e7d32"/><text x="1686.0" y="829.0" font-family="Arial, sans-serif" font-size="13" fill="#202124">4,9★  (210 Rezensionen)</text><text x="1242" y="865.0" text-anchor="end" font-family="Arial, sans-serif" font-size="13" fill="#83888d">15.</text><text x="1284" y="846.0" font-family="Arial, sans-serif" font-size="14" fill="#202124">DA ARMANDO PIZZA - Erste neapolitanische Piz…</text><rect x="1284" y="850.0" width="394.0" height="18" fill="#2e7d32"/><text x="1686.0" y="865.0" font-family="Arial, sans-serif" font-size="13" fill="#202124">4,9★  (207 Rezensionen)</text><text x="1242" y="901.0" text-anchor="end" font-family="Arial, sans-serif" font-size="13" fill="#83888d">16.</text><text x="1284" y="882.0" font-family="Arial, sans-serif" font-size="14" fill="#202124">1855 Retro</text><rect x="1284" y="886.0" width="394.0" height="18" fill="#2e7d32"/><text x="1686.0" y="901.0" font-family="Arial, sans-serif" font-size="13" fill="#202124">4,9★  (147 Rezensionen)</text><text x="1242" y="937.0" text-anchor="end" font-family="Arial, sans-serif" font-size="13" fill="#83888d">17.</text><text x="1284" y="918.0" font-family="Arial, sans-serif" font-size="14" fill="#202124">Metzgerei Brunner GmbH</text><rect x="1284" y="922.0" width="394.0" height="18" fill="#2e7d32"/><text x="1686.0" y="937.0" font-family="Arial, sans-serif" font-size="13" fill="#202124">4,9★  (145 Rezensionen)</text><text x="1242" y="973.0" text-anchor="end" font-family="Arial, sans-serif" font-size="13" fill="#83888d">18.</text><text x="1284" y="954.0" font-family="Arial, sans-serif" font-size="14" fill="#202124">Bonnie &amp; Clyde Hair-Lounge</text><rect x="1284" y="958.0" width="394.0" height="18" fill="#2e7d32"/><text x="1686.0" y="973.0" font-family="Arial, sans-serif" font-size="13" fill="#202124">4,9★  (142 Rezensionen)</text><text x="1242" y="1009.0" text-anchor="end" font-family="Arial, sans-serif" font-size="13" fill="#83888d">19.</text><text x="1284" y="990.0" font-family="Arial, sans-serif" font-size="14" fill="#202124">Zur Freiheit - Landshuter Suppenküche</text><rect x="1284" y="994.0" width="394.0" height="18" fill="#2e7d32"/><text x="1686.0" y="1009.0" font-family="Arial, sans-serif" font-size="13" fill="#202124">4,9★  (142 Rezensionen)</text><text x="1242" y="1045.0" text-anchor="end" font-family="Arial, sans-serif" font-size="13" fill="#83888d">20.</text><text x="1284" y="1026.0" font-family="Arial, sans-serif" font-size="14" fill="#202124">BARföG</text><rect x="1284" y="1030.0" width="394.0" height="18" fill="#2e7d32"/><text x="1686.0" y="1045.0" font-family="Arial, sans-serif" font-size="13" fill="#202124">4,9★  (129 Rezensionen)</text><text x="1242" y="1081.0" text-anchor="end" font-family="Arial, sans-serif" font-size="13" fill="#83888d">21.</text><text x="1284" y="1062.0" font-family="Arial, sans-serif" font-size="14" fill="#202124">almiNa Fitness GmbH</text><rect x="1284" y="1066.0" width="394.0" height="18" fill="#2e7d32"/><text x="1686.0" y="1081.0" font-family="Arial, sans-serif" font-size="13" fill="#202124">4,9★  (123 Rezensionen)</text><text x="1242" y="1117.0" text-anchor="end" font-family="Arial, sans-serif" font-size="13" fill="#83888d">22.</text><text x="1284" y="1098.0" font-family="Arial, sans-serif" font-size="14" fill="#202124">Kartuli - Georgische Spezialitäten</text><rect x="1284" y="1102.0" width="394.0" height="18" fill="#2e7d32"/><text x="1686.0" y="1117.0" font-family="Arial, sans-serif" font-size="13" fill="#202124">4,9★  (110 Rezensionen)</text><text x="1242" y="1153.0" text-anchor="end" font-family="Arial, sans-serif" font-size="13" fill="#83888d">23.</text><text x="1284" y="1134.0" font-family="Arial, sans-serif" font-size="14" fill="#202124">Capriccio Italiano</text><rect x="1284" y="1138.0" width="394.0" height="18" fill="#2e7d32"/><text x="1686.0" y="1153.0" font-family="Arial, sans-serif" font-size="13" fill="#202124">4,9★  (101 Rezensionen)</text><text x="1242" y="1189.0" text-anchor="end" font-family="Arial, sans-serif" font-size="13" fill="#83888d">24.</text><text x="1284" y="1170.0" font-family="Arial, sans-serif" font-size="14" fill="#202124">CAFFE GELATO ITALIANO by Jerry</text><rect x="1284" y="1174.0" width="385.9" height="18" fill="#2e7d32"/><text x="1677.9" y="1189.0" font-family="Arial, sans-serif" font-size="13" fill="#202124">4,8★  (897 Rezensionen)</text><text x="1242" y="1225.0" text-anchor="end" font-family="Arial, sans-serif" font-size="13" fill="#83888d">25.</text><text x="1284" y="1206.0" font-family="Arial, sans-serif" font-size="14" fill="#202124">Fit Stop Landshut GmbH &amp; Co.KG</text><rect x="1284" y="1210.0" width="385.9" height="18" fill="#2e7d32"/><text x="1677.9" y="1225.0" font-family="Arial, sans-serif" font-size="13" fill="#202124">4,8★  (636 Rezensionen)</text><text x="1242" y="1261.0" text-anchor="end" font-family="Arial, sans-serif" font-size="13" fill="#83888d">26.</text><text x="1284" y="1242.0" font-family="Arial, sans-serif" font-size="14" fill="#202124">Ali Baba - Döner Imbiss</text><rect x="1284" y="1246.0" width="385.9" height="18" fill="#2e7d32"/><text x="1677.9" y="1261.0" font-family="Arial, sans-serif" font-size="13" fill="#202124">4,8★  (609 Rezensionen)</text><text x="1242" y="1297.0" text-anchor="end" font-family="Arial, sans-serif" font-size="13" fill="#83888d">27.</text><text x="1284" y="1278.0" font-family="Arial, sans-serif" font-size="14" fill="#202124">Mera Desh</text><rect x="1284" y="1282.0" width="385.9" height="18" fill="#2e7d32"/><text x="1677.9" y="1297.0" font-family="Arial, sans-serif" font-size="13" fill="#202124">4,8★  (598 Rezensionen)</text><text x="1242" y="1333.0" text-anchor="end" font-family="Arial, sans-serif" font-size="13" fill="#83888d">28.</text><text x="1284" y="1314.0" font-family="Arial, sans-serif" font-size="14" fill="#202124">Burgerlon</text><rect x="1284" y="1318.0" width="385.9" height="18" fill="#2e7d32"/><text x="1677.9" y="1333.0" font-family="Arial, sans-serif" font-size="13" fill="#202124">4,8★  (589 Rezensionen)</text><text x="1242" y="1369.0" text-anchor="end" font-family="Arial, sans-serif" font-size="13" fill="#83888d">29.</text><text x="1284" y="1350.0" font-family="Arial, sans-serif" font-size="14" fill="#202124">GelatOK</text><rect x="1284" y="1354.0" width="385.9" height="18" fill="#2e7d32"/><text x="1677.9" y="1369.0" font-family="Arial, sans-serif" font-size="13" fill="#202124">4,8★  (586 Rezensionen)</text><text x="1242" y="1405.0" text-anchor="end" font-family="Arial, sans-serif" font-size="13" fill="#83888d">30.</text><text x="1284" y="1386.0" font-family="Arial, sans-serif" font-size="14" fill="#202124">zum Spießer - der etwas andere Döner!</text><rect x="1284" y="1390.0" width="385.9" height="18" fill="#2e7d32"/><text x="1677.9" y="1405.0" font-family="Arial, sans-serif" font-size="13" fill="#202124">4,8★  (523 Rezensionen)</text><text x="1485" y="1444.0" text-anchor="middle" font-family="Arial, sans-serif" font-size="13" fill="#6f7377">Rating (★)</text></g><g><text x="120" y="1660" font-family="Arial, sans-serif" font-size="28" font-weight="800" fill="#202124">Verteilung der Lösch-Stufen über alle 658 Orte</text><rect x="120" y="1715" width="1540" height="560" fill="#ffffff" opacity="0.96" filter="url(#softShadow)"/><text x="150" y="1781" font-family="Arial, sans-serif" font-size="18" fill="#202124">Keine Löschung</text><rect x="450" y="1765" width="900" height="24" fill="#edf2f5"/><rect x="450" y="1765" width="900.0" height="24" fill="#2e7d32"/><text x="1380" y="1783" font-family="Arial, sans-serif" font-size="18" fill="#202124">595 (90,4%)</text><text x="150" y="1826" font-family="Arial, sans-serif" font-size="18" fill="#202124">Eine gelöscht</text><rect x="450" y="1810" width="900" height="24" fill="#edf2f5"/><rect x="450" y="1810" width="9.1" height="24" fill="#8bc34a"/><text x="1380" y="1828" font-family="Arial, sans-serif" font-size="18" fill="#202124">6 (0,9%)</text><text x="150" y="1871" font-family="Arial, sans-serif" font-size="18" fill="#202124">2–5 gelöscht</text><rect x="450" y="1855" width="900" height="24" fill="#edf2f5"/><rect x="450" y="1855" width="37.8" height="24" fill="#cddc39"/><text x="1380" y="1873" font-family="Arial, sans-serif" font-size="18" fill="#202124">25 (3,8%)</text><text x="150" y="1916" font-family="Arial, sans-serif" font-size="18" fill="#202124">6–10 gelöscht</text><rect x="450" y="1900" width="900" height="24" fill="#edf2f5"/><rect x="450" y="1900" width="16.6" height="24" fill="#ffca28"/><text x="1380" y="1918" font-family="Arial, sans-serif" font-size="18" fill="#202124">11 (1,7%)</text><text x="150" y="1961" font-family="Arial, sans-serif" font-size="18" fill="#202124">11–20 gelöscht</text><rect x="450" y="1945" width="900" height="24" fill="#edf2f5"/><rect x="450" y="1945" width="13.6" height="24" fill="#ff9f1c"/><text x="1380" y="1963" font-family="Arial, sans-serif" font-size="18" fill="#202124">9 (1,4%)</text><text x="150" y="2006" font-family="Arial, sans-serif" font-size="18" fill="#202124">21–50 gelöscht</text><rect x="450" y="1990" width="900" height="24" fill="#edf2f5"/><rect x="450" y="1990" width="9.1" height="24" fill="#ff6d00"/><text x="1380" y="2008" font-family="Arial, sans-serif" font-size="18" fill="#202124">6 (0,9%)</text><text x="150" y="2051" font-family="Arial, sans-serif" font-size="18" fill="#202124">51–100 gelöscht</text><rect x="450" y="2035" width="900" height="24" fill="#edf2f5"/><rect x="450" y="2035" width="6.1" height="24" fill="#e5391b"/><text x="1380" y="2053" font-family="Arial, sans-serif" font-size="18" fill="#202124">4 (0,6%)</text><text x="150" y="2096" font-family="Arial, sans-serif" font-size="18" fill="#202124">101–200 gelöscht</text><rect x="450" y="2080" width="900" height="24" fill="#edf2f5"/><rect x="450" y="2080" width="1.5" height="24" fill="#c62828"/><text x="1380" y="2098" font-family="Arial, sans-serif" font-size="18" fill="#202124">1 (0,2%)</text><text x="150" y="2141" font-family="Arial, sans-serif" font-size="18" fill="#202124">201–250 gelöscht</text><rect x="450" y="2125" width="900" height="24" fill="#edf2f5"/><rect x="450" y="2125" width="1.5" height="24" fill="#8e1919"/><text x="1380" y="2143" font-family="Arial, sans-serif" font-size="18" fill="#202124">1 (0,2%)</text><text x="150" y="2186" font-family="Arial, sans-serif" font-size="18" fill="#202124">Über 250 gelöscht</text><rect x="450" y="2170" width="900" height="24" fill="#edf2f5"/><rect x="450" y="2170" width="0.0" height="24" fill="#5b0f0f"/><text x="1380" y="2188" font-family="Arial, sans-serif" font-size="18" fill="#202124">0 (0,0%)</text></g><text x="40" y="2460" font-family="Arial, sans-serif" font-size="13" fill="#8a8f94">Quelle: Google Maps, öffentlich sichtbare Banner; Analyse-Snapshot 15.05.2026</text><text x="1760" y="2460" text-anchor="end" font-family="Arial, sans-serif" font-size="13" fill="#8a8f94">© <a href="https://patwoz.dev" target="_blank" style="fill:#8a8f94;text-decoration:none">Patrick Wozniak</a></text><text x="1760" y="2480" text-anchor="end" font-family="Arial, sans-serif" font-size="11" fill="#aab0b5">patwoz.dev</text></svg>
