<svg xmlns="http://www.w3.org/2000/svg" width="1800" height="2500" viewBox="0 0 1800 2500">
  <defs>
    <linearGradient id="bg" x1="0" y1="0" x2="0" y2="1"><stop offset="0%" stop-color="#d9e8f2"/><stop offset="58%" stop-color="#eef6fa"/><stop offset="100%" stop-color="#d7dde2"/></linearGradient>
    <filter id="softShadow" x="-10%" y="-10%" width="120%" height="120%"><feDropShadow dx="0" dy="8" stdDeviation="10" flood-color="#6d7f8a" flood-opacity="0.16"/></filter>
  </defs>
  <rect width="100%" height="100%" fill="url(#bg)"/>
  <circle cx="1450" cy="310" r="500" fill="#ffffff" opacity="0.18"/>
  <circle cx="260" cy="2140" r="620" fill="#ffffff" opacity="0.20"/>
  <text x="900" y="70" text-anchor="middle" font-family="Arial, sans-serif" font-size="48" font-weight="800" fill="#202124">Landkreis Landshut</text>
  <text x="900" y="112" text-anchor="middle" font-family="Arial, sans-serif" font-size="22" fill="#4b5055">Alle erfassten PLZ — gelöschte Rezensionen wegen „Diffamierung“</text>
  <text x="900" y="160" text-anchor="middle" font-family="Arial, sans-serif" font-size="18" fill="#6f7377">1.338 Orte erfasst · 93 mit sichtbarem Banner (7,0%) · 0 in der „Über“-Stufe</text><g><text x="80" y="230" font-family="Arial, sans-serif" font-size="27" font-weight="800" fill="#202124">1. Höchste Lösch-Quote</text><text x="80" y="260" font-family="Arial, sans-serif" font-size="16" fill="#6f7377">Anteil gelöschter Rezensionen</text><rect x="80" y="322" width="470" height="1104" fill="#ffffff" opacity="0.96" filter="url(#softShadow)"/><line x1="114.0" y1="322" x2="114.0" y2="1406.0" stroke="#dde3e8" stroke-width="1"/><line x1="214.5" y1="322" x2="214.5" y2="1406.0" stroke="#dde3e8" stroke-width="1"/><line x1="315.0" y1="322" x2="315.0" y2="1406.0" stroke="#dde3e8" stroke-width="1"/><line x1="415.5" y1="322" x2="415.5" y2="1406.0" stroke="#dde3e8" stroke-width="1"/><line x1="516.0" y1="322" x2="516.0" y2="1406.0" stroke="#dde3e8" stroke-width="1"/><text x="72" y="361.0" text-anchor="end" font-family="Arial, sans-serif" font-size="13" fill="#83888d">1.</text><text x="114" y="342.0" font-family="Arial, sans-serif" font-size="14" fill="#202124">Pension Toni</text><rect x="114" y="346.0" width="402.0" height="18" fill="#c9332c"/><text x="524.0" y="361.0" font-family="Arial, sans-serif" font-size="13" fill="#202124">33,3%  (1 von 2)</text><text x="72" y="397.0" text-anchor="end" font-family="Arial, sans-serif" font-size="13" fill="#83888d">2.</text><text x="114" y="378.0" font-family="Arial, sans-serif" font-size="14" fill="#202124">easyApotheke Landshut-Park</text><rect x="114" y="382.0" width="325.2" height="18" fill="#c9332c"/><text x="447.2" y="397.0" font-family="Arial, sans-serif" font-size="13" fill="#202124">27,0%  (11–20 von 42)</text><text x="72" y="433.0" text-anchor="end" font-family="Arial, sans-serif" font-size="13" fill="#83888d">3.</text><text x="114" y="414.0" font-family="Arial, sans-serif" font-size="14" fill="#202124">Hofberg Apotheke</text><rect x="114" y="418.0" width="272.3" height="18" fill="#c9332c"/><text x="394.3" y="433.0" font-family="Arial, sans-serif" font-size="13" fill="#202124">22,6%  (2–5 von 12)</text><text x="72" y="469.0" text-anchor="end" font-family="Arial, sans-serif" font-size="13" fill="#83888d">4.</text><text x="114" y="450.0" font-family="Arial, sans-serif" font-size="14" fill="#202124">Barbara-Apotheke / CannabisFürMich</text><rect x="114" y="454.0" width="272.2" height="18" fill="#c9332c"/><text x="394.2" y="469.0" font-family="Arial, sans-serif" font-size="13" fill="#202124">22,6%  (51–100 von 259)</text><text x="72" y="505.0" text-anchor="end" font-family="Arial, sans-serif" font-size="13" fill="#83888d">5.</text><text x="114" y="486.0" font-family="Arial, sans-serif" font-size="14" fill="#202124">Habibi orientalische Küche</text><rect x="114" y="490.0" width="260.3" height="18" fill="#c9332c"/><text x="382.3" y="505.0" font-family="Arial, sans-serif" font-size="13" fill="#202124">21,6%  (21–50 von 129)</text><text x="72" y="541.0" text-anchor="end" font-family="Arial, sans-serif" font-size="13" fill="#83888d">6.</text><text x="114" y="522.0" font-family="Arial, sans-serif" font-size="14" fill="#202124">Primo Pizzeria Restaurant &amp; Heimservice - La…</text><rect x="114" y="526.0" width="251.1" height="18" fill="#c9332c"/><text x="373.1" y="541.0" font-family="Arial, sans-serif" font-size="13" fill="#202124">20,8%  (21–50 von 135)</text><text x="72" y="577.0" text-anchor="end" font-family="Arial, sans-serif" font-size="13" fill="#83888d">7.</text><text x="114" y="558.0" font-family="Arial, sans-serif" font-size="14" fill="#202124">Gasthof Ramsauer</text><rect x="114" y="562.0" width="251.1" height="18" fill="#c9332c"/><text x="373.1" y="577.0" font-family="Arial, sans-serif" font-size="13" fill="#202124">20,8%  (21–50 von 135)</text><text x="72" y="613.0" text-anchor="end" font-family="Arial, sans-serif" font-size="13" fill="#83888d">8.</text><text x="114" y="594.0" font-family="Arial, sans-serif" font-size="14" fill="#202124">Call a Pizza Landshut</text><rect x="114" y="598.0" width="205.4" height="18" fill="#c9332c"/><text x="327.4" y="613.0" font-family="Arial, sans-serif" font-size="13" fill="#202124">17,0%  (21–50 von 173)</text><text x="72" y="649.0" text-anchor="end" font-family="Arial, sans-serif" font-size="13" fill="#83888d">9.</text><text x="114" y="630.0" font-family="Arial, sans-serif" font-size="14" fill="#202124">Gasthaus zum Freischütz</text><rect x="114" y="634.0" width="176.7" height="18" fill="#c9332c"/><text x="298.7" y="649.0" font-family="Arial, sans-serif" font-size="13" fill="#202124">14,7%  (51–100 von 440)</text><text x="72" y="685.0" text-anchor="end" font-family="Arial, sans-serif" font-size="13" fill="#83888d">10.</text><text x="114" y="666.0" font-family="Arial, sans-serif" font-size="14" fill="#202124">Altstadt-Apotheke</text><rect x="114" y="670.0" width="172.4" height="18" fill="#c9332c"/><text x="294.4" y="685.0" font-family="Arial, sans-serif" font-size="13" fill="#202124">14,3%  (6–10 von 48)</text><text x="72" y="721.0" text-anchor="end" font-family="Arial, sans-serif" font-size="13" fill="#83888d">11.</text><text x="114" y="702.0" font-family="Arial, sans-serif" font-size="14" fill="#202124">Le Viny babershop</text><rect x="114" y="706.0" width="165.0" height="18" fill="#c9332c"/><text x="287.0" y="721.0" font-family="Arial, sans-serif" font-size="13" fill="#202124">13,7%  (21–50 von 224)</text><text x="72" y="757.0" text-anchor="end" font-family="Arial, sans-serif" font-size="13" fill="#83888d">12.</text><text x="114" y="738.0" font-family="Arial, sans-serif" font-size="14" fill="#202124">Himmel-Landshut GmbH</text><rect x="114" y="742.0" width="162.5" height="18" fill="#c9332c"/><text x="284.5" y="757.0" font-family="Arial, sans-serif" font-size="13" fill="#202124">13,5%  (51–100 von 485)</text><text x="72" y="793.0" text-anchor="end" font-family="Arial, sans-serif" font-size="13" fill="#83888d">13.</text><text x="114" y="774.0" font-family="Arial, sans-serif" font-size="14" fill="#202124">Kinderhaus Blaubaer</text><rect x="114" y="778.0" width="160.8" height="18" fill="#c9332c"/><text x="282.8" y="793.0" font-family="Arial, sans-serif" font-size="13" fill="#202124">13,3%  (6–10 von 52)</text><text x="72" y="829.0" text-anchor="end" font-family="Arial, sans-serif" font-size="13" fill="#83888d">14.</text><text x="114" y="810.0" font-family="Arial, sans-serif" font-size="14" fill="#202124">Café Aran Kronprinz</text><rect x="114" y="814.0" width="153.2" height="18" fill="#c9332c"/><text x="275.2" y="829.0" font-family="Arial, sans-serif" font-size="13" fill="#202124">12,7%  (51–100 von 519)</text><text x="72" y="865.0" text-anchor="end" font-family="Arial, sans-serif" font-size="13" fill="#83888d">15.</text><text x="114" y="846.0" font-family="Arial, sans-serif" font-size="14" fill="#202124">Tanda Palace</text><rect x="114" y="850.0" width="133.2" height="18" fill="#c9332c"/><text x="255.2" y="865.0" font-family="Arial, sans-serif" font-size="13" fill="#202124">11,0%  (21–50 von 286)</text><text x="72" y="901.0" text-anchor="end" font-family="Arial, sans-serif" font-size="13" fill="#83888d">16.</text><text x="114" y="882.0" font-family="Arial, sans-serif" font-size="14" fill="#202124">Zum G&#39;sellnhaus</text><rect x="114" y="886.0" width="133.0" height="18" fill="#c9332c"/><text x="255.0" y="901.0" font-family="Arial, sans-serif" font-size="13" fill="#202124">11,0%  (51–100 von 609)</text><text x="72" y="937.0" text-anchor="end" font-family="Arial, sans-serif" font-size="13" fill="#83888d">17.</text><text x="114" y="918.0" font-family="Arial, sans-serif" font-size="14" fill="#202124">Autohaus Josef Fischer GmbH</text><rect x="114" y="922.0" width="130.4" height="18" fill="#c9332c"/><text x="252.4" y="937.0" font-family="Arial, sans-serif" font-size="13" fill="#202124">10,8%  (21–50 von 293)</text><text x="72" y="973.0" text-anchor="end" font-family="Arial, sans-serif" font-size="13" fill="#83888d">18.</text><text x="114" y="954.0" font-family="Arial, sans-serif" font-size="14" fill="#202124">Nikolaidis Griechisches Restaurant</text><rect x="114" y="958.0" width="124.2" height="18" fill="#c9332c"/><text x="246.2" y="973.0" font-family="Arial, sans-serif" font-size="13" fill="#202124">10,3%  (11–20 von 135)</text><text x="72" y="1009.0" text-anchor="end" font-family="Arial, sans-serif" font-size="13" fill="#83888d">19.</text><text x="114" y="990.0" font-family="Arial, sans-serif" font-size="14" fill="#202124">Grillpoint 36</text><rect x="114" y="994.0" width="123.0" height="18" fill="#c9332c"/><text x="245.0" y="1009.0" font-family="Arial, sans-serif" font-size="13" fill="#202124">10,2%  (101–150 von 1.105)</text><text x="72" y="1045.0" text-anchor="end" font-family="Arial, sans-serif" font-size="13" fill="#83888d">20.</text><text x="114" y="1026.0" font-family="Arial, sans-serif" font-size="14" fill="#202124">burgerme Landshut</text><rect x="114" y="1030.0" width="117.1" height="18" fill="#c9332c"/><text x="239.1" y="1045.0" font-family="Arial, sans-serif" font-size="13" fill="#202124">9,7%  (21–50 von 330)</text><text x="72" y="1081.0" text-anchor="end" font-family="Arial, sans-serif" font-size="13" fill="#83888d">21.</text><text x="114" y="1062.0" font-family="Arial, sans-serif" font-size="14" fill="#202124">La Osteria Landshut</text><rect x="114" y="1066.0" width="110.5" height="18" fill="#c9332c"/><text x="232.5" y="1081.0" font-family="Arial, sans-serif" font-size="13" fill="#202124">9,2%  (151–200 von 1.740)</text><text x="72" y="1117.0" text-anchor="end" font-family="Arial, sans-serif" font-size="13" fill="#83888d">22.</text><text x="114" y="1098.0" font-family="Arial, sans-serif" font-size="14" fill="#202124">CHARMANT Landshut</text><rect x="114" y="1102.0" width="99.7" height="18" fill="#c9332c"/><text x="221.7" y="1117.0" font-family="Arial, sans-serif" font-size="13" fill="#202124">8,3%  (11–20 von 172)</text><text x="72" y="1153.0" text-anchor="end" font-family="Arial, sans-serif" font-size="13" fill="#83888d">23.</text><text x="114" y="1134.0" font-family="Arial, sans-serif" font-size="14" fill="#202124">Zum Friseur Glashoff</text><rect x="114" y="1138.0" width="99.4" height="18" fill="#c9332c"/><text x="221.4" y="1153.0" font-family="Arial, sans-serif" font-size="13" fill="#202124">8,2%  (2–5 von 39)</text><text x="72" y="1189.0" text-anchor="end" font-family="Arial, sans-serif" font-size="13" fill="#83888d">24.</text><text x="114" y="1170.0" font-family="Arial, sans-serif" font-size="14" fill="#202124">Aktiv-Möbelhandelsgesellschaft OHG</text><rect x="114" y="1174.0" width="98.4" height="18" fill="#c9332c"/><text x="220.4" y="1189.0" font-family="Arial, sans-serif" font-size="13" fill="#202124">8,2%  (6–10 von 90)</text><text x="72" y="1225.0" text-anchor="end" font-family="Arial, sans-serif" font-size="13" fill="#83888d">25.</text><text x="114" y="1206.0" font-family="Arial, sans-serif" font-size="14" fill="#202124">Noon Mirch Indisches Restaurant — Altstadt L…</text><rect x="114" y="1210.0" width="83.2" height="18" fill="#c9332c"/><text x="205.2" y="1225.0" font-family="Arial, sans-serif" font-size="13" fill="#202124">6,9%  (6–10 von 108)</text><text x="72" y="1261.0" text-anchor="end" font-family="Arial, sans-serif" font-size="13" fill="#83888d">26.</text><text x="114" y="1242.0" font-family="Arial, sans-serif" font-size="14" fill="#202124">TMPHYSIO Mühleninsel</text><rect x="114" y="1246.0" width="80.4" height="18" fill="#c9332c"/><text x="202.4" y="1261.0" font-family="Arial, sans-serif" font-size="13" fill="#202124">6,7%  (2–5 von 49)</text><text x="72" y="1297.0" text-anchor="end" font-family="Arial, sans-serif" font-size="13" fill="#83888d">27.</text><text x="114" y="1278.0" font-family="Arial, sans-serif" font-size="14" fill="#202124">Panorama GmbH</text><rect x="114" y="1282.0" width="80.4" height="18" fill="#c9332c"/><text x="202.4" y="1297.0" font-family="Arial, sans-serif" font-size="13" fill="#202124">6,7%  (1 von 14)</text><text x="72" y="1333.0" text-anchor="end" font-family="Arial, sans-serif" font-size="13" fill="#83888d">28.</text><text x="114" y="1314.0" font-family="Arial, sans-serif" font-size="14" fill="#202124">Pension Geiger</text><rect x="114" y="1318.0" width="76.1" height="18" fill="#c9332c"/><text x="198.1" y="1333.0" font-family="Arial, sans-serif" font-size="13" fill="#202124">6,3%  (2–5 von 52)</text><text x="72" y="1369.0" text-anchor="end" font-family="Arial, sans-serif" font-size="13" fill="#83888d">29.</text><text x="114" y="1350.0" font-family="Arial, sans-serif" font-size="14" fill="#202124">Deinböck GmbH &amp; Co. KG (deinböck – Ihre Male…</text><rect x="114" y="1354.0" width="75.4" height="18" fill="#c9332c"/><text x="197.4" y="1369.0" font-family="Arial, sans-serif" font-size="13" fill="#202124">6,2%  (1 von 15)</text><text x="72" y="1405.0" text-anchor="end" font-family="Arial, sans-serif" font-size="13" fill="#83888d">30.</text><text x="114" y="1386.0" font-family="Arial, sans-serif" font-size="14" fill="#202124">Si Trattoria Italienische und Amerikanische …</text><rect x="114" y="1390.0" width="73.5" height="18" fill="#c9332c"/><text x="195.5" y="1405.0" font-family="Arial, sans-serif" font-size="13" fill="#202124">6,1%  (2–5 von 54)</text><text x="315" y="1444.0" text-anchor="middle" font-family="Arial, sans-serif" font-size="13" fill="#6f7377">Lösch-Quote (%) · Top 30</text></g><g><text x="665" y="230" font-family="Arial, sans-serif" font-size="27" font-weight="800" fill="#202124">2. Schlechtestes „echtes“ Rating</text><text x="665" y="260" font-family="Arial, sans-serif" font-size="16" fill="#6f7377">Modell: gelöschte Rezensionen waren 1★</text><rect x="665" y="322" width="470" height="1104" fill="#ffffff" opacity="0.96" filter="url(#softShadow)"/><line x1="699.0" y1="322" x2="699.0" y2="1406.0" stroke="#dde3e8" stroke-width="1"/><line x1="799.5" y1="322" x2="799.5" y2="1406.0" stroke="#dde3e8" stroke-width="1"/><line x1="900.0" y1="322" x2="900.0" y2="1406.0" stroke="#dde3e8" stroke-width="1"/><line x1="1000.5" y1="322" x2="1000.5" y2="1406.0" stroke="#dde3e8" stroke-width="1"/><line x1="1101.0" y1="322" x2="1101.0" y2="1406.0" stroke="#dde3e8" stroke-width="1"/><text x="657" y="361.0" text-anchor="end" font-family="Arial, sans-serif" font-size="13" fill="#83888d">1.</text><text x="699" y="342.0" font-family="Arial, sans-serif" font-size="14" fill="#202124">Pension Toni</text><rect x="699" y="346.0" width="402.0" height="18" fill="#ef7d16"/><text x="1109.0" y="361.0" font-family="Arial, sans-serif" font-size="13" fill="#202124">2,33★  (vorher 3,0★)</text><text x="657" y="397.0" text-anchor="end" font-family="Arial, sans-serif" font-size="13" fill="#83888d">2.</text><text x="699" y="378.0" font-family="Arial, sans-serif" font-size="14" fill="#202124">easyApotheke Landshut-Park</text><rect x="699" y="382.0" width="272.7" height="18" fill="#ef7d16"/><text x="979.7" y="397.0" font-family="Arial, sans-serif" font-size="13" fill="#202124">3,19★  (vorher 4,0★)</text><text x="657" y="433.0" text-anchor="end" font-family="Arial, sans-serif" font-size="13" fill="#83888d">3.</text><text x="699" y="414.0" font-family="Arial, sans-serif" font-size="14" fill="#202124">Hofberg Apotheke</text><rect x="699" y="418.0" width="194.4" height="18" fill="#ef7d16"/><text x="901.4" y="433.0" font-family="Arial, sans-serif" font-size="13" fill="#202124">3,71★  (vorher 4,5★)</text><text x="657" y="469.0" text-anchor="end" font-family="Arial, sans-serif" font-size="13" fill="#83888d">4.</text><text x="699" y="450.0" font-family="Arial, sans-serif" font-size="14" fill="#202124">Barbara-Apotheke / CannabisFürMich</text><rect x="699" y="454.0" width="182.8" height="18" fill="#ef7d16"/><text x="889.8" y="469.0" font-family="Arial, sans-serif" font-size="13" fill="#202124">3,79★  (vorher 4,6★)</text><text x="657" y="505.0" text-anchor="end" font-family="Arial, sans-serif" font-size="13" fill="#83888d">5.</text><text x="699" y="486.0" font-family="Arial, sans-serif" font-size="14" fill="#202124">Call a Pizza Landshut</text><rect x="699" y="490.0" width="177.7" height="18" fill="#ef7d16"/><text x="884.7" y="505.0" font-family="Arial, sans-serif" font-size="13" fill="#202124">3,82★  (vorher 4,4★)</text><text x="657" y="541.0" text-anchor="end" font-family="Arial, sans-serif" font-size="13" fill="#83888d">6.</text><text x="699" y="522.0" font-family="Arial, sans-serif" font-size="14" fill="#202124">Sonnen Apotheke</text><rect x="699" y="526.0" width="168.4" height="18" fill="#ef7d16"/><text x="875.4" y="541.0" font-family="Arial, sans-serif" font-size="13" fill="#202124">3,88★  (vorher 4,0★)</text><text x="657" y="577.0" text-anchor="end" font-family="Arial, sans-serif" font-size="13" fill="#83888d">7.</text><text x="699" y="558.0" font-family="Arial, sans-serif" font-size="14" fill="#202124">Primo Pizzeria Restaurant &amp; Heimservice - La…</text><rect x="699" y="562.0" width="161.3" height="18" fill="#ef7d16"/><text x="868.3" y="577.0" font-family="Arial, sans-serif" font-size="13" fill="#202124">3,93★  (vorher 4,7★)</text><text x="657" y="613.0" text-anchor="end" font-family="Arial, sans-serif" font-size="13" fill="#83888d">8.</text><text x="699" y="594.0" font-family="Arial, sans-serif" font-size="14" fill="#202124">EDEKA</text><rect x="699" y="598.0" width="153.7" height="18" fill="#ef7d16"/><text x="860.7" y="613.0" font-family="Arial, sans-serif" font-size="13" fill="#202124">3,98★  (vorher 4,1★)</text><text x="657" y="649.0" text-anchor="end" font-family="Arial, sans-serif" font-size="13" fill="#83888d">9.</text><text x="699" y="630.0" font-family="Arial, sans-serif" font-size="14" fill="#202124">Habibi orientalische Küche</text><rect x="699" y="634.0" width="153.7" height="18" fill="#ef7d16"/><text x="860.7" y="649.0" font-family="Arial, sans-serif" font-size="13" fill="#202124">3,98★  (vorher 4,8★)</text><text x="657" y="685.0" text-anchor="end" font-family="Arial, sans-serif" font-size="13" fill="#83888d">10.</text><text x="699" y="666.0" font-family="Arial, sans-serif" font-size="14" fill="#202124">Gasthof Ramsauer</text><rect x="699" y="670.0" width="149.4" height="18" fill="#ef7d16"/><text x="856.4" y="685.0" font-family="Arial, sans-serif" font-size="13" fill="#202124">4,01★  (vorher 4,8★)</text><text x="657" y="721.0" text-anchor="end" font-family="Arial, sans-serif" font-size="13" fill="#83888d">11.</text><text x="699" y="702.0" font-family="Arial, sans-serif" font-size="14" fill="#202124">Altstadt-Apotheke</text><rect x="699" y="706.0" width="137.8" height="18" fill="#ef7d16"/><text x="844.8" y="721.0" font-family="Arial, sans-serif" font-size="13" fill="#202124">4,09★  (vorher 4,6★)</text><text x="657" y="757.0" text-anchor="end" font-family="Arial, sans-serif" font-size="13" fill="#83888d">12.</text><text x="699" y="738.0" font-family="Arial, sans-serif" font-size="14" fill="#202124">Wok Restaurant</text><rect x="699" y="742.0" width="136.0" height="18" fill="#ef7d16"/><text x="843.0" y="757.0" font-family="Arial, sans-serif" font-size="13" fill="#202124">4,10★  (vorher 4,1★)</text><text x="657" y="793.0" text-anchor="end" font-family="Arial, sans-serif" font-size="13" fill="#83888d">13.</text><text x="699" y="774.0" font-family="Arial, sans-serif" font-size="14" fill="#202124">Gasthaus zum Freischütz</text><rect x="699" y="778.0" width="126.9" height="18" fill="#ef7d16"/><text x="833.9" y="793.0" font-family="Arial, sans-serif" font-size="13" fill="#202124">4,16★  (vorher 4,7★)</text><text x="657" y="829.0" text-anchor="end" font-family="Arial, sans-serif" font-size="13" fill="#83888d">14.</text><text x="699" y="810.0" font-family="Arial, sans-serif" font-size="14" fill="#202124">EDEKA Leeb</text><rect x="699" y="814.0" width="124.8" height="18" fill="#ef7d16"/><text x="831.8" y="829.0" font-family="Arial, sans-serif" font-size="13" fill="#202124">4,17★  (vorher 4,2★)</text><text x="657" y="865.0" text-anchor="end" font-family="Arial, sans-serif" font-size="13" fill="#83888d">15.</text><text x="699" y="846.0" font-family="Arial, sans-serif" font-size="14" fill="#202124">La Osteria Landshut</text><rect x="699" y="850.0" width="123.8" height="18" fill="#ef7d16"/><text x="830.8" y="865.0" font-family="Arial, sans-serif" font-size="13" fill="#202124">4,18★  (vorher 4,5★)</text><text x="657" y="901.0" text-anchor="end" font-family="Arial, sans-serif" font-size="13" fill="#83888d">16.</text><text x="699" y="882.0" font-family="Arial, sans-serif" font-size="14" fill="#202124">Himmel-Landshut GmbH</text><rect x="699" y="886.0" width="120.3" height="18" fill="#ef7d16"/><text x="827.3" y="901.0" font-family="Arial, sans-serif" font-size="13" fill="#202124">4,20★  (vorher 4,7★)</text><text x="657" y="937.0" text-anchor="end" font-family="Arial, sans-serif" font-size="13" fill="#83888d">17.</text><text x="699" y="918.0" font-family="Arial, sans-serif" font-size="14" fill="#202124">Café Aran Kronprinz</text><rect x="699" y="922.0" width="116.1" height="18" fill="#ef7d16"/><text x="823.1" y="937.0" font-family="Arial, sans-serif" font-size="13" fill="#202124">4,23★  (vorher 4,7★)</text><text x="657" y="973.0" text-anchor="end" font-family="Arial, sans-serif" font-size="13" fill="#83888d">18.</text><text x="699" y="954.0" font-family="Arial, sans-serif" font-size="14" fill="#202124">Si Trattoria Italienische und Amerikanische …</text><rect x="699" y="958.0" width="107.5" height="18" fill="#ef7d16"/><text x="814.5" y="973.0" font-family="Arial, sans-serif" font-size="13" fill="#202124">4,29★  (vorher 4,5★)</text><text x="657" y="1009.0" text-anchor="end" font-family="Arial, sans-serif" font-size="13" fill="#83888d">19.</text><text x="699" y="990.0" font-family="Arial, sans-serif" font-size="14" fill="#202124">Zum G&#39;sellnhaus</text><rect x="699" y="994.0" width="106.7" height="18" fill="#ef7d16"/><text x="813.7" y="1009.0" font-family="Arial, sans-serif" font-size="13" fill="#202124">4,29★  (vorher 4,7★)</text><text x="657" y="1045.0" text-anchor="end" font-family="Arial, sans-serif" font-size="13" fill="#83888d">20.</text><text x="699" y="1026.0" font-family="Arial, sans-serif" font-size="14" fill="#202124">L&#39;Osteria Landshut Altstadt</text><rect x="699" y="1030.0" width="105.8" height="18" fill="#ef7d16"/><text x="812.8" y="1045.0" font-family="Arial, sans-serif" font-size="13" fill="#202124">4,30★  (vorher 4,3★)</text><text x="657" y="1081.0" text-anchor="end" font-family="Arial, sans-serif" font-size="13" fill="#83888d">21.</text><text x="699" y="1062.0" font-family="Arial, sans-serif" font-size="14" fill="#202124">Balkan &amp; International Imbiss</text><rect x="699" y="1066.0" width="103.1" height="18" fill="#ef7d16"/><text x="810.1" y="1081.0" font-family="Arial, sans-serif" font-size="13" fill="#202124">4,32★  (vorher 4,5★)</text><text x="657" y="1117.0" text-anchor="end" font-family="Arial, sans-serif" font-size="13" fill="#83888d">22.</text><text x="699" y="1098.0" font-family="Arial, sans-serif" font-size="14" fill="#202124">Cafe Kreuzer Konditorei</text><rect x="699" y="1102.0" width="100.8" height="18" fill="#ef7d16"/><text x="807.8" y="1117.0" font-family="Arial, sans-serif" font-size="13" fill="#202124">4,33★  (vorher 4,4★)</text><text x="657" y="1153.0" text-anchor="end" font-family="Arial, sans-serif" font-size="13" fill="#83888d">23.</text><text x="699" y="1134.0" font-family="Arial, sans-serif" font-size="14" fill="#202124">Le Viny babershop</text><rect x="699" y="1138.0" width="95.6" height="18" fill="#ef7d16"/><text x="802.6" y="1153.0" font-family="Arial, sans-serif" font-size="13" fill="#202124">4,37★  (vorher 4,9★)</text><text x="657" y="1189.0" text-anchor="end" font-family="Arial, sans-serif" font-size="13" fill="#83888d">24.</text><text x="699" y="1170.0" font-family="Arial, sans-serif" font-size="14" fill="#202124">Audi Zentrum Landshut - Zweigniederlassung d…</text><rect x="699" y="1174.0" width="93.8" height="18" fill="#ef7d16"/><text x="800.8" y="1189.0" font-family="Arial, sans-serif" font-size="13" fill="#202124">4,38★  (vorher 4,4★)</text><text x="657" y="1225.0" text-anchor="end" font-family="Arial, sans-serif" font-size="13" fill="#83888d">25.</text><text x="699" y="1206.0" font-family="Arial, sans-serif" font-size="14" fill="#202124">Kinderhaus Blaubaer</text><rect x="699" y="1210.0" width="93.5" height="18" fill="#ef7d16"/><text x="800.5" y="1225.0" font-family="Arial, sans-serif" font-size="13" fill="#202124">4,38★  (vorher 4,9★)</text><text x="657" y="1261.0" text-anchor="end" font-family="Arial, sans-serif" font-size="13" fill="#83888d">26.</text><text x="699" y="1242.0" font-family="Arial, sans-serif" font-size="14" fill="#202124">Autohaus Josef Fischer GmbH</text><rect x="699" y="1246.0" width="92.1" height="18" fill="#ef7d16"/><text x="799.1" y="1261.0" font-family="Arial, sans-serif" font-size="13" fill="#202124">4,39★  (vorher 4,8★)</text><text x="657" y="1297.0" text-anchor="end" font-family="Arial, sans-serif" font-size="13" fill="#83888d">27.</text><text x="699" y="1278.0" font-family="Arial, sans-serif" font-size="14" fill="#202124">Gasthof Hotel Drei Tannen Altdorf</text><rect x="699" y="1282.0" width="91.2" height="18" fill="#ef7d16"/><text x="798.2" y="1297.0" font-family="Arial, sans-serif" font-size="13" fill="#202124">4,39★  (vorher 4,4★)</text><text x="657" y="1333.0" text-anchor="end" font-family="Arial, sans-serif" font-size="13" fill="#83888d">28.</text><text x="699" y="1314.0" font-family="Arial, sans-serif" font-size="14" fill="#202124">Restaurant Dynasty</text><rect x="699" y="1318.0" width="89.7" height="18" fill="#ef7d16"/><text x="796.7" y="1333.0" font-family="Arial, sans-serif" font-size="13" fill="#202124">4,41★  (vorher 4,5★)</text><text x="657" y="1369.0" text-anchor="end" font-family="Arial, sans-serif" font-size="13" fill="#83888d">29.</text><text x="699" y="1350.0" font-family="Arial, sans-serif" font-size="14" fill="#202124">Nikolaidis Griechisches Restaurant</text><rect x="699" y="1354.0" width="89.1" height="18" fill="#ef7d16"/><text x="796.1" y="1369.0" font-family="Arial, sans-serif" font-size="13" fill="#202124">4,41★  (vorher 4,8★)</text><text x="657" y="1405.0" text-anchor="end" font-family="Arial, sans-serif" font-size="13" fill="#83888d">30.</text><text x="699" y="1386.0" font-family="Arial, sans-serif" font-size="14" fill="#202124">Grillpoint 36</text><rect x="699" y="1390.0" width="88.6" height="18" fill="#ef7d16"/><text x="795.6" y="1405.0" font-family="Arial, sans-serif" font-size="13" fill="#202124">4,41★  (vorher 4,8★)</text><text x="900" y="1444.0" text-anchor="middle" font-family="Arial, sans-serif" font-size="13" fill="#6f7377">Punkte unter 5★</text></g><g><text x="1250" y="230" font-family="Arial, sans-serif" font-size="27" font-weight="800" fill="#202124">3. Beste Orte ohne Löschbanner</text><text x="1250" y="260" font-family="Arial, sans-serif" font-size="16" fill="#6f7377">kein sichtbarer Diffamierungs-Löschbanner — ab 100 Rezensionen</text><rect x="1250" y="322" width="470" height="1104" fill="#ffffff" opacity="0.96" filter="url(#softShadow)"/><line x1="1284.0" y1="322" x2="1284.0" y2="1406.0" stroke="#dde3e8" stroke-width="1"/><line x1="1384.5" y1="322" x2="1384.5" y2="1406.0" stroke="#dde3e8" stroke-width="1"/><line x1="1485.0" y1="322" x2="1485.0" y2="1406.0" stroke="#dde3e8" stroke-width="1"/><line x1="1585.5" y1="322" x2="1585.5" y2="1406.0" stroke="#dde3e8" stroke-width="1"/><line x1="1686.0" y1="322" x2="1686.0" y2="1406.0" stroke="#dde3e8" stroke-width="1"/><text x="1242" y="361.0" text-anchor="end" font-family="Arial, sans-serif" font-size="13" fill="#83888d">1.</text><text x="1284" y="342.0" font-family="Arial, sans-serif" font-size="14" fill="#202124">Hundekindergarten Lucky Dog</text><rect x="1284" y="346.0" width="402.0" height="18" fill="#2e7d32"/><text x="1694.0" y="361.0" font-family="Arial, sans-serif" font-size="13" fill="#202124">5,0★  (176 Rezensionen)</text><text x="1242" y="397.0" text-anchor="end" font-family="Arial, sans-serif" font-size="13" fill="#83888d">2.</text><text x="1284" y="378.0" font-family="Arial, sans-serif" font-size="14" fill="#202124">BWM Amritpal</text><rect x="1284" y="382.0" width="402.0" height="18" fill="#2e7d32"/><text x="1694.0" y="397.0" font-family="Arial, sans-serif" font-size="13" fill="#202124">5,0★  (162 Rezensionen)</text><text x="1242" y="433.0" text-anchor="end" font-family="Arial, sans-serif" font-size="13" fill="#83888d">3.</text><text x="1284" y="414.0" font-family="Arial, sans-serif" font-size="14" fill="#202124">PrimeFit+ Vilsbiburg</text><rect x="1284" y="418.0" width="402.0" height="18" fill="#2e7d32"/><text x="1694.0" y="433.0" font-family="Arial, sans-serif" font-size="13" fill="#202124">5,0★  (149 Rezensionen)</text><text x="1242" y="469.0" text-anchor="end" font-family="Arial, sans-serif" font-size="13" fill="#83888d">4.</text><text x="1284" y="450.0" font-family="Arial, sans-serif" font-size="14" fill="#202124">AtelHAIR Landshut GmbH</text><rect x="1284" y="454.0" width="402.0" height="18" fill="#2e7d32"/><text x="1694.0" y="469.0" font-family="Arial, sans-serif" font-size="13" fill="#202124">5,0★  (144 Rezensionen)</text><text x="1242" y="505.0" text-anchor="end" font-family="Arial, sans-serif" font-size="13" fill="#83888d">5.</text><text x="1284" y="486.0" font-family="Arial, sans-serif" font-size="14" fill="#202124">G&#39;schmeidig Haare lasern Landshut (Geschmeid…</text><rect x="1284" y="490.0" width="402.0" height="18" fill="#2e7d32"/><text x="1694.0" y="505.0" font-family="Arial, sans-serif" font-size="13" fill="#202124">5,0★  (127 Rezensionen)</text><text x="1242" y="541.0" text-anchor="end" font-family="Arial, sans-serif" font-size="13" fill="#83888d">6.</text><text x="1284" y="522.0" font-family="Arial, sans-serif" font-size="14" fill="#202124">Hair Amis</text><rect x="1284" y="526.0" width="402.0" height="18" fill="#2e7d32"/><text x="1694.0" y="541.0" font-family="Arial, sans-serif" font-size="13" fill="#202124">5,0★  (125 Rezensionen)</text><text x="1242" y="577.0" text-anchor="end" font-family="Arial, sans-serif" font-size="13" fill="#83888d">7.</text><text x="1284" y="558.0" font-family="Arial, sans-serif" font-size="14" fill="#202124">LA COURAGE</text><rect x="1284" y="562.0" width="402.0" height="18" fill="#2e7d32"/><text x="1694.0" y="577.0" font-family="Arial, sans-serif" font-size="13" fill="#202124">5,0★  (118 Rezensionen)</text><text x="1242" y="613.0" text-anchor="end" font-family="Arial, sans-serif" font-size="13" fill="#83888d">8.</text><text x="1284" y="594.0" font-family="Arial, sans-serif" font-size="14" fill="#202124">Secret Corner Salon</text><rect x="1284" y="598.0" width="402.0" height="18" fill="#2e7d32"/><text x="1694.0" y="613.0" font-family="Arial, sans-serif" font-size="13" fill="#202124">5,0★  (112 Rezensionen)</text><text x="1242" y="649.0" text-anchor="end" font-family="Arial, sans-serif" font-size="13" fill="#83888d">9.</text><text x="1284" y="630.0" font-family="Arial, sans-serif" font-size="14" fill="#202124">LaVita GmbH</text><rect x="1284" y="634.0" width="394.0" height="18" fill="#2e7d32"/><text x="1686.0" y="649.0" font-family="Arial, sans-serif" font-size="13" fill="#202124">4,9★  (1.746 Rezensionen)</text><text x="1242" y="685.0" text-anchor="end" font-family="Arial, sans-serif" font-size="13" fill="#83888d">10.</text><text x="1284" y="666.0" font-family="Arial, sans-serif" font-size="14" fill="#202124">RESTAURANT DHABA LANDSHUT</text><rect x="1284" y="670.0" width="394.0" height="18" fill="#2e7d32"/><text x="1686.0" y="685.0" font-family="Arial, sans-serif" font-size="13" fill="#202124">4,9★  (1.545 Rezensionen)</text><text x="1242" y="721.0" text-anchor="end" font-family="Arial, sans-serif" font-size="13" fill="#83888d">11.</text><text x="1284" y="702.0" font-family="Arial, sans-serif" font-size="14" fill="#202124">KP Latino</text><rect x="1284" y="706.0" width="394.0" height="18" fill="#2e7d32"/><text x="1686.0" y="721.0" font-family="Arial, sans-serif" font-size="13" fill="#202124">4,9★  (313 Rezensionen)</text><text x="1242" y="757.0" text-anchor="end" font-family="Arial, sans-serif" font-size="13" fill="#83888d">12.</text><text x="1284" y="738.0" font-family="Arial, sans-serif" font-size="14" fill="#202124">AMY Shisha Shop Landshut</text><rect x="1284" y="742.0" width="394.0" height="18" fill="#2e7d32"/><text x="1686.0" y="757.0" font-family="Arial, sans-serif" font-size="13" fill="#202124">4,9★  (312 Rezensionen)</text><text x="1242" y="793.0" text-anchor="end" font-family="Arial, sans-serif" font-size="13" fill="#83888d">13.</text><text x="1284" y="774.0" font-family="Arial, sans-serif" font-size="14" fill="#202124">Wasmayr Hof</text><rect x="1284" y="778.0" width="394.0" height="18" fill="#2e7d32"/><text x="1686.0" y="793.0" font-family="Arial, sans-serif" font-size="13" fill="#202124">4,9★  (289 Rezensionen)</text><text x="1242" y="829.0" text-anchor="end" font-family="Arial, sans-serif" font-size="13" fill="#83888d">14.</text><text x="1284" y="810.0" font-family="Arial, sans-serif" font-size="14" fill="#202124">LA-STYLE</text><rect x="1284" y="814.0" width="394.0" height="18" fill="#2e7d32"/><text x="1686.0" y="829.0" font-family="Arial, sans-serif" font-size="13" fill="#202124">4,9★  (284 Rezensionen)</text><text x="1242" y="865.0" text-anchor="end" font-family="Arial, sans-serif" font-size="13" fill="#83888d">15.</text><text x="1284" y="846.0" font-family="Arial, sans-serif" font-size="14" fill="#202124">Barbieria Landshut</text><rect x="1284" y="850.0" width="394.0" height="18" fill="#2e7d32"/><text x="1686.0" y="865.0" font-family="Arial, sans-serif" font-size="13" fill="#202124">4,9★  (272 Rezensionen)</text><text x="1242" y="901.0" text-anchor="end" font-family="Arial, sans-serif" font-size="13" fill="#83888d">16.</text><text x="1284" y="882.0" font-family="Arial, sans-serif" font-size="14" fill="#202124">Le Petit Café de Monsieur S.</text><rect x="1284" y="886.0" width="394.0" height="18" fill="#2e7d32"/><text x="1686.0" y="901.0" font-family="Arial, sans-serif" font-size="13" fill="#202124">4,9★  (261 Rezensionen)</text><text x="1242" y="937.0" text-anchor="end" font-family="Arial, sans-serif" font-size="13" fill="#83888d">17.</text><text x="1284" y="918.0" font-family="Arial, sans-serif" font-size="14" fill="#202124">Nepomuk Landshut</text><rect x="1284" y="922.0" width="394.0" height="18" fill="#2e7d32"/><text x="1686.0" y="937.0" font-family="Arial, sans-serif" font-size="13" fill="#202124">4,9★  (241 Rezensionen)</text><text x="1242" y="973.0" text-anchor="end" font-family="Arial, sans-serif" font-size="13" fill="#83888d">18.</text><text x="1284" y="954.0" font-family="Arial, sans-serif" font-size="14" fill="#202124">Fire Bar</text><rect x="1284" y="958.0" width="394.0" height="18" fill="#2e7d32"/><text x="1686.0" y="973.0" font-family="Arial, sans-serif" font-size="13" fill="#202124">4,9★  (224 Rezensionen)</text><text x="1242" y="1009.0" text-anchor="end" font-family="Arial, sans-serif" font-size="13" fill="#83888d">19.</text><text x="1284" y="990.0" font-family="Arial, sans-serif" font-size="14" fill="#202124">LUKE&#39;S Erste Hilfe Kurs Landshut</text><rect x="1284" y="994.0" width="394.0" height="18" fill="#2e7d32"/><text x="1686.0" y="1009.0" font-family="Arial, sans-serif" font-size="13" fill="#202124">4,9★  (216 Rezensionen)</text><text x="1242" y="1045.0" text-anchor="end" font-family="Arial, sans-serif" font-size="13" fill="#83888d">20.</text><text x="1284" y="1026.0" font-family="Arial, sans-serif" font-size="14" fill="#202124">ProBier Feinkost &amp; Bierspezialitäten</text><rect x="1284" y="1030.0" width="394.0" height="18" fill="#2e7d32"/><text x="1686.0" y="1045.0" font-family="Arial, sans-serif" font-size="13" fill="#202124">4,9★  (210 Rezensionen)</text><text x="1242" y="1081.0" text-anchor="end" font-family="Arial, sans-serif" font-size="13" fill="#83888d">21.</text><text x="1284" y="1062.0" font-family="Arial, sans-serif" font-size="14" fill="#202124">DA ARMANDO PIZZA - Erste neapolitanische Piz…</text><rect x="1284" y="1066.0" width="394.0" height="18" fill="#2e7d32"/><text x="1686.0" y="1081.0" font-family="Arial, sans-serif" font-size="13" fill="#202124">4,9★  (207 Rezensionen)</text><text x="1242" y="1117.0" text-anchor="end" font-family="Arial, sans-serif" font-size="13" fill="#83888d">22.</text><text x="1284" y="1098.0" font-family="Arial, sans-serif" font-size="14" fill="#202124">ACTIVE LIFE 24 Fitnessclub</text><rect x="1284" y="1102.0" width="394.0" height="18" fill="#2e7d32"/><text x="1686.0" y="1117.0" font-family="Arial, sans-serif" font-size="13" fill="#202124">4,9★  (204 Rezensionen)</text><text x="1242" y="1153.0" text-anchor="end" font-family="Arial, sans-serif" font-size="13" fill="#83888d">23.</text><text x="1284" y="1134.0" font-family="Arial, sans-serif" font-size="14" fill="#202124">junited AUTOGLAS Landshut - AMS Autoglas GmbH</text><rect x="1284" y="1138.0" width="394.0" height="18" fill="#2e7d32"/><text x="1686.0" y="1153.0" font-family="Arial, sans-serif" font-size="13" fill="#202124">4,9★  (180 Rezensionen)</text><text x="1242" y="1189.0" text-anchor="end" font-family="Arial, sans-serif" font-size="13" fill="#83888d">24.</text><text x="1284" y="1170.0" font-family="Arial, sans-serif" font-size="14" fill="#202124">Weinhaus DEUTTER</text><rect x="1284" y="1174.0" width="394.0" height="18" fill="#2e7d32"/><text x="1686.0" y="1189.0" font-family="Arial, sans-serif" font-size="13" fill="#202124">4,9★  (179 Rezensionen)</text><text x="1242" y="1225.0" text-anchor="end" font-family="Arial, sans-serif" font-size="13" fill="#83888d">25.</text><text x="1284" y="1206.0" font-family="Arial, sans-serif" font-size="14" fill="#202124">Pizzeria La Notizia</text><rect x="1284" y="1210.0" width="394.0" height="18" fill="#2e7d32"/><text x="1686.0" y="1225.0" font-family="Arial, sans-serif" font-size="13" fill="#202124">4,9★  (170 Rezensionen)</text><text x="1242" y="1261.0" text-anchor="end" font-family="Arial, sans-serif" font-size="13" fill="#83888d">26.</text><text x="1284" y="1242.0" font-family="Arial, sans-serif" font-size="14" fill="#202124">Nähmaschinen DEALER - Gruber GmbH &amp; Co. KG</text><rect x="1284" y="1246.0" width="394.0" height="18" fill="#2e7d32"/><text x="1686.0" y="1261.0" font-family="Arial, sans-serif" font-size="13" fill="#202124">4,9★  (170 Rezensionen)</text><text x="1242" y="1297.0" text-anchor="end" font-family="Arial, sans-serif" font-size="13" fill="#83888d">27.</text><text x="1284" y="1278.0" font-family="Arial, sans-serif" font-size="14" fill="#202124">1855 Retro</text><rect x="1284" y="1282.0" width="394.0" height="18" fill="#2e7d32"/><text x="1686.0" y="1297.0" font-family="Arial, sans-serif" font-size="13" fill="#202124">4,9★  (147 Rezensionen)</text><text x="1242" y="1333.0" text-anchor="end" font-family="Arial, sans-serif" font-size="13" fill="#83888d">28.</text><text x="1284" y="1314.0" font-family="Arial, sans-serif" font-size="14" fill="#202124">Metzgerei Brunner GmbH</text><rect x="1284" y="1318.0" width="394.0" height="18" fill="#2e7d32"/><text x="1686.0" y="1333.0" font-family="Arial, sans-serif" font-size="13" fill="#202124">4,9★  (145 Rezensionen)</text><text x="1242" y="1369.0" text-anchor="end" font-family="Arial, sans-serif" font-size="13" fill="#83888d">29.</text><text x="1284" y="1350.0" font-family="Arial, sans-serif" font-size="14" fill="#202124">Bonnie &amp; Clyde Hair-Lounge</text><rect x="1284" y="1354.0" width="394.0" height="18" fill="#2e7d32"/><text x="1686.0" y="1369.0" font-family="Arial, sans-serif" font-size="13" fill="#202124">4,9★  (142 Rezensionen)</text><text x="1242" y="1405.0" text-anchor="end" font-family="Arial, sans-serif" font-size="13" fill="#83888d">30.</text><text x="1284" y="1386.0" font-family="Arial, sans-serif" font-size="14" fill="#202124">Zur Freiheit - Landshuter Suppenküche</text><rect x="1284" y="1390.0" width="394.0" height="18" fill="#2e7d32"/><text x="1686.0" y="1405.0" font-family="Arial, sans-serif" font-size="13" fill="#202124">4,9★  (142 Rezensionen)</text><text x="1485" y="1444.0" text-anchor="middle" font-family="Arial, sans-serif" font-size="13" fill="#6f7377">Rating (★)</text></g><g><text x="120" y="1660" font-family="Arial, sans-serif" font-size="28" font-weight="800" fill="#202124">Verteilung der Lösch-Stufen über alle 1.338 Orte</text><rect x="120" y="1715" width="1540" height="560" fill="#ffffff" opacity="0.96" filter="url(#softShadow)"/><text x="150" y="1781" font-family="Arial, sans-serif" font-size="18" fill="#202124">Keine Löschung</text><rect x="450" y="1765" width="900" height="24" fill="#edf2f5"/><rect x="450" y="1765" width="900.0" height="24" fill="#2e7d32"/><text x="1380" y="1783" font-family="Arial, sans-serif" font-size="18" fill="#202124">1.245 (93,0%)</text><text x="150" y="1826" font-family="Arial, sans-serif" font-size="18" fill="#202124">Eine gelöscht</text><rect x="450" y="1810" width="900" height="24" fill="#edf2f5"/><rect x="450" y="1810" width="12.3" height="24" fill="#8bc34a"/><text x="1380" y="1828" font-family="Arial, sans-serif" font-size="18" fill="#202124">17 (1,3%)</text><text x="150" y="1871" font-family="Arial, sans-serif" font-size="18" fill="#202124">2–5 gelöscht</text><rect x="450" y="1855" width="900" height="24" fill="#edf2f5"/><rect x="450" y="1855" width="23.9" height="24" fill="#cddc39"/><text x="1380" y="1873" font-family="Arial, sans-serif" font-size="18" fill="#202124">33 (2,5%)</text><text x="150" y="1916" font-family="Arial, sans-serif" font-size="18" fill="#202124">6–10 gelöscht</text><rect x="450" y="1900" width="900" height="24" fill="#edf2f5"/><rect x="450" y="1900" width="11.6" height="24" fill="#ffca28"/><text x="1380" y="1918" font-family="Arial, sans-serif" font-size="18" fill="#202124">16 (1,2%)</text><text x="150" y="1961" font-family="Arial, sans-serif" font-size="18" fill="#202124">11–20 gelöscht</text><rect x="450" y="1945" width="900" height="24" fill="#edf2f5"/><rect x="450" y="1945" width="8.0" height="24" fill="#ff9f1c"/><text x="1380" y="1963" font-family="Arial, sans-serif" font-size="18" fill="#202124">11 (0,8%)</text><text x="150" y="2006" font-family="Arial, sans-serif" font-size="18" fill="#202124">21–50 gelöscht</text><rect x="450" y="1990" width="900" height="24" fill="#edf2f5"/><rect x="450" y="1990" width="6.5" height="24" fill="#ff6d00"/><text x="1380" y="2008" font-family="Arial, sans-serif" font-size="18" fill="#202124">9 (0,7%)</text><text x="150" y="2051" font-family="Arial, sans-serif" font-size="18" fill="#202124">51–100 gelöscht</text><rect x="450" y="2035" width="900" height="24" fill="#edf2f5"/><rect x="450" y="2035" width="3.6" height="24" fill="#e5391b"/><text x="1380" y="2053" font-family="Arial, sans-serif" font-size="18" fill="#202124">5 (0,4%)</text><text x="150" y="2096" font-family="Arial, sans-serif" font-size="18" fill="#202124">101–200 gelöscht</text><rect x="450" y="2080" width="900" height="24" fill="#edf2f5"/><rect x="450" y="2080" width="0.7" height="24" fill="#c62828"/><text x="1380" y="2098" font-family="Arial, sans-serif" font-size="18" fill="#202124">1 (0,1%)</text><text x="150" y="2141" font-family="Arial, sans-serif" font-size="18" fill="#202124">201–250 gelöscht</text><rect x="450" y="2125" width="900" height="24" fill="#edf2f5"/><rect x="450" y="2125" width="0.7" height="24" fill="#8e1919"/><text x="1380" y="2143" font-family="Arial, sans-serif" font-size="18" fill="#202124">1 (0,1%)</text><text x="150" y="2186" font-family="Arial, sans-serif" font-size="18" fill="#202124">Über 250 gelöscht</text><rect x="450" y="2170" width="900" height="24" fill="#edf2f5"/><rect x="450" y="2170" width="0.0" height="24" fill="#5b0f0f"/><text x="1380" y="2188" font-family="Arial, sans-serif" font-size="18" fill="#202124">0 (0,0%)</text></g><text x="40" y="2460" font-family="Arial, sans-serif" font-size="13" fill="#8a8f94">Quelle: Google Maps, öffentlich sichtbare Banner; Analyse-Snapshot 16.05.2026</text><text x="1760" y="2460" text-anchor="end" font-family="Arial, sans-serif" font-size="13" fill="#8a8f94">© <a href="https://patwoz.dev" target="_blank" style="fill:#8a8f94;text-decoration:none">Patrick Wozniak</a></text><text x="1760" y="2480" text-anchor="end" font-family="Arial, sans-serif" font-size="11" fill="#aab0b5">patwoz.dev</text></svg>
